<?xml version="1.0" standalone="no"?>
<!DOCTYPE svg PUBLIC "-//W3C//DTD SVG 20010904//EN"
 "http://www.w3.org/TR/2001/REC-SVG-20010904/DTD/svg10.dtd">
<svg version="1.0" xmlns="http://www.w3.org/2000/svg"
 width="5120.000000pt" height="3584.000000pt" viewBox="0 0 5120.000000 3584.000000"
 preserveAspectRatio="xMidYMid meet">

<g transform="translate(0.000000,3584.000000) scale(0.100000,-0.100000)"
fill="#000000" stroke="none">
<path d="M3 35607 c2 -216 3 -232 20 -231 14 2 15 -1 6 -13 -10 -11 -14 -11
-21 -1 -4 7 -7 -43 -6 -113 l3 -126 30 3 30 4 -30 -17 c-24 -15 -30 -25 -30
-53 0 -19 4 -41 9 -49 6 -10 6 -12 -2 -7 -7 4 -12 1 -12 -8 0 -9 8 -16 18 -16
10 0 23 -5 30 -12 9 -9 12 -7 12 10 0 14 5 20 14 16 8 -3 19 3 26 15 6 12 15
21 21 21 6 0 8 -4 4 -10 -9 -14 17 -49 32 -43 7 3 13 0 13 -6 0 -6 -6 -11 -12
-11 -9 0 -8 -4 2 -10 8 -5 24 -9 35 -9 17 1 17 2 3 6 -27 7 -22 18 9 21 15 1
30 8 35 15 4 6 8 8 8 2 0 -5 5 -2 11 8 5 9 7 22 4 27 -4 7 3 9 19 6 29 -5 30
-3 15 25 -5 11 -14 17 -20 13 -6 -4 -7 -10 0 -17 6 -9 -1 -13 -27 -15 -21 -2
-46 -4 -57 -6 -11 -2 -26 -4 -34 -5 -11 -1 -11 -4 -1 -16 7 -8 8 -15 2 -15
-13 0 -33 25 -26 33 11 11 -7 47 -24 47 -15 0 -15 -2 -2 -10 13 -8 13 -10 -1
-10 -9 0 -19 7 -23 15 -3 8 -11 15 -17 15 -9 0 -9 -4 0 -14 8 -10 9 -16 1 -21
-5 -3 -10 1 -10 9 0 8 -10 22 -23 31 l-22 17 23 -7 c13 -4 29 -1 37 5 12 10
15 10 15 -1 0 -11 2 -11 10 1 8 13 10 12 10 -2 0 -10 4 -18 8 -18 11 0 9 31
-3 50 -8 13 -6 13 8 2 9 -8 20 -12 24 -9 8 4 41 -26 45 -40 1 -5 9 -7 16 -5
10 2 12 -3 8 -20 -3 -13 -3 -17 0 -10 3 6 10 12 15 12 6 0 7 -6 4 -12 -4 -7 2
-3 13 9 11 12 22 19 26 16 3 -4 6 -3 6 1 0 4 -13 18 -28 31 -16 13 -29 30 -29
37 0 7 -2 18 -3 23 -1 6 -2 19 -1 30 1 16 3 17 10 6 8 -13 12 -13 27 0 16 12
17 12 11 -3 -3 -9 -1 -19 6 -22 7 -4 -1 -4 -18 -1 -19 4 -25 2 -17 -3 7 -5 12
-13 11 -18 -8 -43 30 -77 71 -62 24 9 24 10 6 24 -14 10 -23 11 -32 3 -17 -14
-33 -4 -31 20 1 15 5 17 18 10 23 -12 52 -12 44 1 -3 6 -1 10 5 10 6 0 10 -7
8 -16 -2 -10 3 -19 11 -22 8 -2 11 0 8 5 -3 5 -1 15 5 23 8 12 9 12 4 -2 -6
-19 9 -25 19 -8 10 16 25 12 26 -7 0 -10 5 -4 10 12 10 33 4 75 -11 75 -5 0
-7 -7 -4 -15 5 -11 -1 -15 -20 -15 -14 0 -26 5 -26 10 0 6 -7 10 -15 10 -8 0
-15 5 -15 11 0 6 -12 8 -32 5 -18 -3 -27 -3 -20 0 6 3 10 10 7 15 -4 5 2 6 11
2 10 -3 15 -2 12 3 -3 5 2 17 12 27 16 16 18 16 24 2 3 -9 2 -14 -3 -11 -14 9
-21 -21 -8 -32 7 -5 23 -15 36 -22 21 -11 23 -10 18 3 -9 24 25 26 45 2 18
-22 16 -24 33 31 4 11 13 15 29 12 21 -4 24 -2 20 19 -4 20 -1 24 17 21 15 -2
23 3 25 15 3 20 -7 22 -24 5 -9 -9 -15 -9 -23 -1 -13 13 -4 33 14 33 7 0 6 -4
-3 -10 -8 -5 -10 -10 -4 -10 5 0 19 7 30 16 10 8 13 13 7 9 -15 -7 -15 1 -3
30 7 17 9 17 9 3 1 -10 6 -18 12 -18 7 0 9 10 5 24 -3 14 -2 28 4 31 5 3 7 0
4 -8 -3 -8 2 -20 11 -27 12 -10 15 -10 15 0 0 7 8 10 19 7 16 -4 18 0 15 21
-4 22 -3 24 11 12 12 -10 15 -10 15 0 0 9 4 9 18 -1 15 -12 16 -12 4 2 -8 10
-22 15 -40 12 -72 -12 -104 -9 -115 12 -14 25 -15 48 -2 57 6 5 6 8 -1 8 -6 0
-17 -7 -24 -15 -10 -12 -10 -15 0 -15 8 0 11 -3 7 -6 -3 -3 -11 -3 -17 1 -8 5
-7 11 2 22 11 14 10 15 -12 8 -14 -4 -27 -11 -30 -16 -3 -4 -10 3 -17 17 -9
19 -8 24 3 24 8 0 14 5 14 11 0 5 4 8 9 5 5 -3 23 -1 41 5 24 9 30 16 27 31
-4 15 -3 17 8 8 18 -15 36 -4 28 15 -3 10 2 15 17 15 11 0 18 -4 15 -10 -3 -5
-1 -10 4 -10 15 0 14 30 -1 31 -7 1 -25 2 -40 2 -20 1 -28 6 -28 20 0 11 5 16
13 12 6 -4 1 3 -13 14 -14 11 -31 19 -38 16 -7 -3 -10 0 -7 5 8 13 35 13 35 0
0 -5 9 -10 20 -10 11 0 20 -5 20 -11 0 -6 9 -8 23 -4 22 7 22 7 2 -10 -11 -9
-14 -14 -7 -10 6 3 12 1 12 -5 0 -6 4 -8 10 -5 5 3 12 -6 16 -21 5 -19 9 -22
15 -12 12 19 11 30 -3 22 -8 -5 -9 -2 -5 9 3 9 2 19 -3 22 -13 8 -13 25 1 25
5 0 7 -6 3 -12 -6 -10 -5 -10 7 -1 9 8 20 9 29 3 24 -15 33 -12 27 11 -4 16
-2 19 10 15 11 -5 14 -2 9 10 -5 14 -4 15 9 4 12 -10 15 -10 15 4 0 9 5 16 10
16 6 0 10 5 10 11 0 5 -5 7 -11 4 -6 -4 -17 1 -25 11 -13 18 -14 18 -31 -3
-19 -24 -73 -48 -73 -34 0 5 14 12 30 16 17 4 30 11 30 16 0 6 -6 7 -12 4 -7
-4 -6 0 3 7 14 11 14 15 2 27 -8 7 -12 15 -9 18 3 3 12 -2 21 -11 21 -20 24
-20 21 2 -2 13 -12 17 -43 17 -23 0 -39 -3 -36 -7 2 -5 -1 -8 -6 -8 -6 0 -11
3 -11 8 0 4 -36 8 -81 10 -64 2 -79 0 -73 -10 5 -10 4 -11 -7 0 -7 6 -21 12
-32 12 -12 0 -16 -4 -11 -12 6 -10 5 -10 -7 -1 -11 9 -70 13 -207 13 l-192 -1
3 -232z m562 214 c3 -5 1 -12 -5 -16 -5 -3 -10 1 -10 9 0 18 6 21 15 7z m-129
-25 c0 -14 -5 -21 -9 -17 -4 4 -5 15 -1 24 9 24 12 21 10 -7z m184 4 c-34 -11
-60 -11 -35 0 11 5 29 8 40 8 16 0 15 -2 -5 -8z m24 -25 c3 -8 1 -15 -4 -15
-6 0 -10 7 -10 15 0 8 2 15 4 15 2 0 6 -7 10 -15z m76 1 c0 -3 -4 -8 -10 -11
-5 -3 -10 -1 -10 4 0 6 5 11 10 11 6 0 10 -2 10 -4z m-164 -21 c-20 -15 -36
-19 -36 -10 0 5 38 23 50 24 3 0 -4 -6 -14 -14z m39 -15 c-12 -19 -43 -31 -51
-18 -4 6 -3 8 3 5 6 -4 19 0 29 8 23 17 27 18 19 5z m75 -8 c0 -10 -57 -31
-65 -24 -3 3 9 11 27 18 18 6 34 12 36 13 1 0 2 -3 2 -7z m-214 -76 c1 -8 -6
-16 -16 -19 -13 -3 -17 0 -13 9 3 8 9 14 15 14 5 0 6 6 2 13 -4 6 -3 8 1 4 5
-4 10 -14 11 -21z m59 12 c5 4 5 1 1 -6 -6 -10 -11 -10 -22 -1 -8 6 -14 14
-14 16 0 3 6 0 13 -6 8 -6 18 -7 22 -3z m-114 -26 c-6 -2 -8 -9 -5 -14 4 -7 2
-8 -4 -4 -9 5 -8 12 1 27 7 12 13 15 16 7 2 -7 -1 -14 -8 -16z m134 -12 c3 -6
-1 -7 -9 -4 -18 7 -21 14 -7 14 6 0 13 -4 16 -10z m-51 -24 c13 2 15 -1 8 -8
-6 -6 -8 -18 -4 -27 5 -14 3 -14 -10 -3 -11 9 -18 9 -23 3 -3 -6 -17 -10 -30
-9 -29 3 -23 12 7 13 12 0 23 6 26 14 3 8 0 11 -6 7 -7 -4 -10 2 -9 14 1 17 3
19 12 7 5 -8 18 -13 29 -11z m-57 -8 c-3 -8 -6 -5 -6 6 -1 11 2 17 5 13 3 -3
4 -12 1 -19z m-47 -12 c0 -2 -8 -10 -17 -17 -16 -13 -17 -12 -4 4 13 16 21 21
21 13z m140 -6 c0 -5 -5 -10 -11 -10 -5 0 -7 5 -4 10 3 6 8 10 11 10 2 0 4 -4
4 -10z m-126 -48 c2 -4 -5 -9 -17 -9 -17 -2 -19 0 -7 7 18 12 18 12 24 2z
m-260 -20 c3 -5 -1 -9 -9 -9 -8 0 -12 4 -9 9 3 4 7 8 9 8 2 0 6 -4 9 -8z m291
-12 c4 -6 3 -10 -2 -9 -20 3 -25 -2 -13 -16 7 -9 11 -17 9 -19 -2 -2 -13 8
-23 22 -11 14 -14 22 -8 18 6 -3 13 -2 17 4 8 13 12 13 20 0z m-48 -26 c-3 -3
-12 -4 -19 -1 -8 3 -5 6 6 6 11 1 17 -2 13 -5z m-40 -19 c0 -8 -6 -16 -13 -19
-10 -4 -12 8 -5 32 3 9 18 -1 18 -13z m201 -20 c9 -19 9 -24 0 -22 -23 4 -37
21 -24 30 6 5 -5 5 -24 2 -34 -6 -34 -6 -10 8 31 17 44 13 58 -18z m-288 5 c0
-5 -2 -10 -4 -10 -3 0 -8 5 -11 10 -3 6 -1 10 4 10 6 0 11 -4 11 -10z m50 -9
c0 -3 -5 -13 -11 -21 -9 -13 -10 -13 -6 1 3 9 0 22 -6 28 -9 9 -8 11 6 6 9 -4
17 -10 17 -14z m147 -36 c0 -8 -4 -12 -9 -9 -4 3 -8 1 -8 -4 0 -6 -10 -8 -22
-4 l-22 5 23 9 c12 4 20 12 16 18 -3 5 0 7 8 4 7 -2 14 -11 14 -19z m163 15
c0 -5 -4 -10 -10 -10 -5 0 -10 5 -10 10 0 6 5 10 10 10 6 0 10 -4 10 -10z
m-116 -6 c8 -3 12 -12 9 -21 -4 -10 -2 -14 5 -9 6 3 13 2 16 -3 4 -5 -2 -8
-11 -7 -9 2 -19 8 -21 14 -2 7 -10 12 -18 12 -9 0 -12 5 -9 10 7 12 8 12 29 4z
m-114 -56 c0 -4 -5 -10 -10 -13 -6 -4 -9 -1 -8 7 2 7 -2 12 -8 11 -6 -1 -11 4
-11 12 0 10 4 11 19 2 10 -7 18 -15 18 -19z m88 16 c-1 -5 -9 -9 -16 -10 -10
-2 -11 1 -1 12 12 14 24 13 17 -2z m24 -31 c2 -33 4 -38 13 -53 8 -13 7 -13
-8 -1 -10 7 -16 21 -15 30 3 13 -5 16 -42 14 -42 -2 -43 -1 -12 6 18 5 36 11
39 15 12 11 23 6 25 -11z m-278 -28 c-5 -11 -9 -12 -19 -2 -7 7 -9 14 -4 15 5
2 6 9 2 15 -4 7 0 7 9 -1 9 -8 14 -20 12 -27z m-47 18 c-6 -11 28 -68 40 -68
25 0 20 -12 -7 -22 -17 -6 -30 -7 -30 -2 0 5 8 9 18 9 13 1 10 6 -13 26 -16
15 -24 23 -16 19 9 -5 12 -3 9 6 -3 8 -16 13 -29 12 l-24 -3 25 15 c29 17 33
18 27 8z m300 -33 c-5 -29 -12 -33 -28 -13 -9 11 -10 14 -1 9 7 -4 15 -1 18 8
9 22 14 20 11 -4z m-240 -12 c-3 -8 -6 -5 -6 6 -1 11 2 17 5 13 3 -3 4 -12 1
-19z m-179 -13 c-3 -3 -9 2 -12 12 -6 14 -5 15 5 6 7 -7 10 -15 7 -18z m86 8
c5 -13 -5 -17 -31 -14 -7 1 -13 -3 -13 -9 0 -5 -5 -10 -11 -10 -8 0 -8 5 1 15
7 8 9 15 4 15 -15 0 16 17 31 17 8 0 16 -6 19 -14z m263 8 c16 6 22 5 18 -1
-3 -6 -14 -10 -23 -11 -14 0 -13 -2 3 -9 20 -9 20 -9 0 -9 -11 -1 -26 9 -34
22 -9 15 -9 18 -1 10 9 -8 20 -9 37 -2z m48 -30 c3 -5 1 -12 -5 -16 -5 -3 -10
1 -10 9 0 18 6 21 15 7z m-371 -53 c-3 -5 -10 -6 -15 -3 -5 4 -9 1 -9 -4 0
-15 -27 -14 -36 1 -5 8 -2 9 9 5 9 -3 19 -3 21 2 3 4 12 8 20 8 8 0 13 -4 10
-9z m86 2 c-8 -5 -19 -10 -25 -10 -5 0 -3 5 5 10 8 5 20 10 25 10 6 0 3 -5 -5
-10z m-47 -25 c-7 -21 -12 -19 -10 4 0 11 5 18 9 15 4 -3 5 -11 1 -19z m234 3
c-3 -8 -6 -5 -6 6 -1 11 2 17 5 13 3 -3 4 -12 1 -19z m-156 -8 c5 0 9 -4 9 -8
0 -14 -25 -10 -40 7 -13 13 -12 14 4 8 10 -4 22 -7 27 -7z m-95 -36 c1 -9 0
-13 -4 -10 -3 4 -7 14 -8 22 -1 9 0 13 4 10 3 -4 7 -14 8 -22z m117 -19 c4 -8
1 -17 -5 -21 -7 -4 -8 -3 -4 4 4 7 2 12 -4 12 -6 0 -8 5 -5 10 8 14 12 13 18
-5z m114 -11 c-3 -3 -12 -4 -19 -1 -8 3 -5 6 6 6 11 1 17 -2 13 -5z m-290 -48
c-2 -6 3 -16 11 -22 16 -12 9 -34 -11 -34 -8 0 -8 3 2 9 9 6 10 11 2 15 -6 4
-15 5 -20 2 -5 -3 -8 5 -7 17 0 13 7 24 14 24 7 0 11 -5 9 -11z m153 -46 c0
-5 -5 -10 -11 -10 -5 0 -7 5 -4 10 3 6 8 10 11 10 2 0 4 -4 4 -10z m66 -3 c4
-4 -4 -6 -19 -5 -14 1 -24 5 -21 9 5 9 31 6 40 -4z m-56 -27 c0 -5 -7 -7 -15
-4 -8 4 -15 8 -15 10 0 2 7 4 15 4 8 0 15 -4 15 -10z"/>
<path d="M801 35826 c-6 -7 -6 -17 -1 -26 9 -13 10 -13 11 0 1 8 1 19 0 24 -1
5 5 6 13 3 9 -4 17 -3 20 1 8 13 -32 11 -43 -2z"/>
<path d="M764 35796 c-8 -9 -7 -15 3 -25 8 -7 17 -10 21 -6 4 4 1 10 -7 13
-10 3 -10 6 -1 12 7 4 8 10 4 13 -5 3 -14 0 -20 -7z"/>
<path d="M906 35768 c3 -4 11 -5 19 -1 21 7 19 12 -4 10 -11 0 -18 -5 -15 -9z"/>
<path d="M770 35726 c0 -8 4 -17 9 -20 5 -4 7 3 4 14 -6 23 -13 26 -13 6z"/>
<path d="M790 35728 c0 -11 28 -10 35 1 3 6 -4 9 -15 8 -11 -1 -20 -5 -20 -9z"/>
<path d="M826 35714 c-11 -8 -16 -14 -10 -14 13 0 39 18 34 24 -3 2 -14 -2
-24 -10z"/>
<path d="M745 35710 c-3 -5 -1 -10 4 -10 6 0 11 5 11 10 0 6 -2 10 -4 10 -3 0
-8 -4 -11 -10z"/>
<path d="M706 35684 c-8 -21 -6 -23 17 -15 17 6 17 9 4 19 -12 10 -16 9 -21
-4z"/>
<path d="M656 35672 c-3 -5 1 -9 9 -9 8 0 15 4 15 9 0 4 -4 8 -9 8 -6 0 -12
-4 -15 -8z"/>
<path d="M846 35663 c-6 -14 -5 -15 5 -6 7 7 10 15 7 18 -3 3 -9 -2 -12 -12z"/>
<path d="M920 35658 c0 -4 4 -8 9 -8 6 0 12 4 15 8 3 5 -1 9 -9 9 -8 0 -15 -4
-15 -9z"/>
<path d="M695 35630 c3 -5 14 -10 23 -10 15 0 15 2 2 10 -20 13 -33 13 -25 0z"/>
<path d="M681 35609 c9 -17 8 -23 -2 -30 -12 -7 -12 -9 0 -9 8 0 11 -6 7 -17
-5 -16 -4 -16 9 1 12 16 12 22 -1 47 -8 16 -17 29 -20 29 -2 0 0 -10 7 -21z"/>
<path d="M840 35620 c-9 -6 -10 -10 -3 -10 6 0 15 5 18 10 8 12 4 12 -15 0z"/>
<path d="M925 35620 c-3 -5 -1 -10 4 -10 6 0 11 5 11 10 0 6 -2 10 -4 10 -3 0
-8 -4 -11 -10z"/>
<path d="M745 35610 c3 -5 8 -10 11 -10 2 0 4 5 4 10 0 6 -5 10 -11 10 -5 0
-7 -4 -4 -10z"/>
<path d="M640 35595 c-8 -9 -22 -13 -39 -10 l-26 5 28 -11 c15 -6 27 -14 27
-19 0 -4 9 -10 20 -13 11 -3 20 -1 20 4 0 5 -7 9 -15 9 -13 0 -14 4 -5 21 14
25 7 35 -10 14z"/>
<path d="M555 35570 c3 -5 8 -10 11 -10 2 0 4 5 4 10 0 6 -5 10 -11 10 -5 0
-7 -4 -4 -10z"/>
<path d="M577 35559 c-9 -5 -22 -7 -27 -4 -6 3 -10 1 -10 -5 0 -6 -5 -8 -10
-5 -6 4 -27 1 -48 -6 -20 -7 -32 -14 -25 -16 7 -2 20 0 30 5 27 14 63 -3 58
-27 -2 -11 0 -23 5 -26 5 -3 7 -13 4 -23 -5 -13 -4 -14 4 -4 5 8 12 13 16 13
26 -4 45 1 49 13 5 12 2 12 -20 1 -15 -8 -31 -11 -37 -8 -6 4 -6 8 2 11 7 2
12 8 12 13 0 6 -4 8 -9 4 -5 -3 -12 -1 -16 5 -3 5 -1 10 6 10 8 0 9 4 0 13
-11 14 -10 15 38 19 15 2 17 5 9 15 -6 7 -11 13 -12 13 0 0 -9 -5 -19 -11z"/>
<path d="M817 35550 c-16 -16 -16 -18 -2 -24 9 -3 14 -2 10 3 -3 5 0 11 6 13
7 2 10 9 8 15 -2 6 -11 3 -22 -7z"/>
<path d="M949 35567 c0 -1 -2 -10 -4 -19 -3 -15 0 -16 16 -8 10 6 19 12 19 14
0 4 -30 17 -31 13z"/>
<path d="M718 35549 c17 -19 15 -29 -5 -23 -15 5 -15 4 -3 -5 12 -8 12 -11 -4
-17 -14 -5 -15 -9 -4 -15 7 -5 18 -9 23 -9 6 0 3 5 -5 10 -9 6 -10 10 -3 10 7
0 17 8 22 18 7 14 5 21 -12 31 -18 11 -20 11 -9 0z"/>
<path d="M670 35520 c0 -5 5 -10 11 -10 5 0 7 5 4 10 -3 6 -8 10 -11 10 -2 0
-4 -4 -4 -10z"/>
<path d="M875 35510 c-16 -7 -17 -9 -3 -9 9 -1 20 4 23 9 7 11 7 11 -20 0z"/>
<path d="M643 35496 c0 -15 22 -15 34 0 4 5 4 6 -1 2 -5 -4 -14 -3 -21 2 -8 7
-12 5 -12 -4z"/>
<path d="M827 35490 c-4 -16 -2 -20 9 -16 8 3 14 0 14 -6 0 -6 3 -9 6 -5 3 3
-1 15 -9 27 l-14 21 -6 -21z"/>
<path d="M590 35489 c0 -5 5 -7 10 -4 6 3 10 8 10 11 0 2 -4 4 -10 4 -5 0 -10
-5 -10 -11z"/>
<path d="M735 35469 c-4 -6 -5 -12 -2 -15 2 -3 7 2 10 11 7 17 1 20 -8 4z"/>
<path d="M696 35457 c3 -10 9 -15 12 -12 3 3 0 11 -7 18 -10 9 -11 8 -5 -6z"/>
<path d="M1013 35455 c0 -8 4 -12 9 -9 5 3 6 10 3 15 -9 13 -12 11 -12 -6z"/>
<path d="M786 35445 c-16 -12 -17 -15 -4 -15 9 0 18 7 22 15 7 18 6 18 -18 0z"/>
<path d="M980 35429 c0 -5 5 -7 10 -4 6 3 10 8 10 11 0 2 -4 4 -10 4 -5 0 -10
-5 -10 -11z"/>
<path d="M807 35417 c-3 -8 1 -14 8 -14 7 0 11 6 8 14 -3 7 -6 13 -8 13 -2 0
-5 -6 -8 -13z"/>
<path d="M710 35390 c-13 -8 -13 -10 2 -10 9 0 20 5 23 10 8 13 -5 13 -25 0z"/>
<path d="M644 35376 c-18 -8 -35 -20 -40 -28 -12 -18 -11 -69 1 -65 6 2 9 19
7 37 -2 21 0 30 7 25 6 -3 11 -2 11 4 0 10 39 27 53 23 5 -1 6 2 2 8 -3 5 -7
10 -8 10 -1 -1 -16 -7 -33 -14z"/>
<path d="M650 35350 c-11 -8 -7 -9 15 -4 37 8 45 14 19 14 -10 0 -26 -5 -34
-10z"/>
<path d="M746 35325 c-11 -8 -15 -15 -9 -15 6 0 16 7 23 15 16 19 11 19 -14 0z"/>
<path d="M636 35282 c-3 -5 1 -9 9 -9 8 0 12 4 9 9 -3 4 -7 8 -9 8 -2 0 -6 -4
-9 -8z"/>
<path d="M554 35247 c7 -22 -19 -34 -39 -17 -8 7 -15 9 -15 5 0 -4 -7 -2 -14
5 -13 10 -14 7 -10 -15 3 -15 1 -24 -5 -21 -12 8 -34 -20 -26 -34 3 -5 1 -10
-6 -10 -7 0 -10 -2 -8 -5 3 -2 15 -2 27 2 18 4 20 8 11 19 -7 9 -8 14 -1 14
18 0 21 -29 4 -39 -10 -6 -12 -11 -4 -11 25 0 11 -19 -19 -25 -21 -5 -27 -10
-19 -15 9 -6 9 -9 0 -15 -15 -9 -27 4 -32 34 l-3 25 -30 -30 c-16 -17 -39 -34
-50 -38 -16 -6 -17 -9 -5 -16 8 -6 11 -10 6 -10 -5 0 -3 -6 3 -13 6 -8 7 -17
3 -22 -4 -4 5 0 21 10 15 9 26 25 26 34 -1 14 -2 13 -6 -1 -2 -10 -11 -18 -19
-18 -8 0 -14 8 -14 18 0 14 2 15 10 2 6 -10 10 -11 10 -2 0 17 40 55 41 40 1
-7 1 -16 0 -20 0 -5 3 -8 7 -8 16 0 9 -30 -7 -31 -12 0 -11 -3 4 -9 11 -5 14
-9 7 -9 -7 -1 -10 -6 -6 -12 9 -15 23 9 19 33 -2 11 2 18 11 18 8 0 14 -4 14
-10 0 -5 6 -10 14 -10 8 0 18 -5 22 -12 4 -7 3 -8 -4 -4 -17 10 -15 -9 3 -24
8 -7 12 -17 8 -23 -3 -6 -1 -7 6 -3 6 4 8 13 4 19 -4 7 -6 23 -4 36 1 13 -1
21 -6 18 -12 -8 -45 31 -38 44 4 5 11 7 16 4 5 -4 9 -2 9 2 0 5 8 9 18 10 53
3 69 8 65 20 -3 8 3 13 13 14 14 1 12 3 -6 8 -28 8 -60 3 -60 -10 0 -4 9 -6
20 -4 11 2 20 0 20 -4 0 -5 -11 -8 -25 -8 -23 0 -24 2 -21 46 3 25 5 50 5 55
1 5 7 4 14 -1 21 -17 49 -24 41 -11 -5 8 -2 9 10 5 10 -4 19 -1 23 8 4 13 8
13 21 3 13 -11 15 -10 9 5 -4 10 -7 21 -7 23 0 2 -9 -1 -20 -8 -17 -11 -22
-10 -31 2 -9 13 -10 12 -5 -3z"/>
<path d="M534 35192 c3 -6 -2 -13 -11 -15 -16 -4 -16 -5 -1 -6 21 -1 32 15 17
25 -7 4 -9 3 -5 -4z"/>
<path d="M635 35170 c-3 -6 1 -7 9 -4 18 7 21 14 7 14 -6 0 -13 -4 -16 -10z"/>
<path d="M676 35153 c-6 -14 -5 -15 5 -6 7 7 10 15 7 18 -3 3 -9 -2 -12 -12z"/>
<path d="M275 35130 c-3 -5 -1 -10 4 -10 6 0 11 5 11 10 0 6 -2 10 -4 10 -3 0
-8 -4 -11 -10z"/>
<path d="M137 35103 c-4 -3 1 -12 11 -20 16 -12 16 -13 -1 -7 -13 5 -16 2 -11
-10 4 -9 9 -15 12 -12 2 3 13 1 22 -4 21 -11 21 2 2 38 -13 22 -23 27 -35 15z"/>
<path d="M568 35074 c-16 -8 -28 -17 -28 -19 0 -6 32 6 55 22 26 18 7 16 -27
-3z"/>
<path d="M475 35070 c3 -5 11 -10 16 -10 6 0 7 5 4 10 -3 6 -11 10 -16 10 -6
0 -7 -4 -4 -10z"/>
<path d="M525 35020 c3 -5 8 -10 11 -10 2 0 4 5 4 10 0 6 -5 10 -11 10 -5 0
-7 -4 -4 -10z"/>
<path d="M596 35013 c-6 -14 -5 -15 5 -6 7 7 10 15 7 18 -3 3 -9 -2 -12 -12z"/>
<path d="M343 34991 c0 -11 5 -18 9 -15 4 3 5 11 1 19 -7 21 -12 19 -10 -4z"/>
<path d="M95 34980 c-4 -6 -11 -8 -16 -5 -5 4 -9 1 -9 -5 0 -7 7 -10 18 -6 15
5 15 4 2 -7 -8 -6 -16 -19 -18 -27 -3 -12 -1 -12 9 -3 9 9 16 10 26 1 23 -19
39 5 25 37 -12 26 -26 32 -37 15z m25 -10 c0 -5 -2 -10 -4 -10 -3 0 -8 5 -11
10 -3 6 -1 10 4 10 6 0 11 -4 11 -10z m5 -30 c3 -5 1 -10 -4 -10 -6 0 -11 5
-11 10 0 6 2 10 4 10 3 0 8 -4 11 -10z"/>
<path d="M510 34986 c0 -2 8 -10 18 -17 15 -13 16 -12 3 4 -13 16 -21 21 -21
13z"/>
<path d="M264 34966 c-8 -9 -8 -16 0 -28 10 -13 13 -14 25 -1 11 13 11 17 0
28 -11 11 -16 11 -25 1z"/>
<path d="M17 34963 c-8 -7 11 -33 24 -33 5 0 9 5 9 10 0 6 -6 9 -12 8 -7 -2
-12 3 -10 10 2 13 -1 15 -11 5z"/>
<path d="M220 34941 c0 -5 -3 -18 -6 -28 -4 -11 -2 -14 3 -7 6 8 16 8 36 -1
15 -6 24 -15 20 -20 -5 -4 -2 -5 5 -1 18 11 15 16 -19 28 -19 7 -28 15 -25 24
3 8 1 14 -4 14 -6 0 -10 -4 -10 -9z"/>
<path d="M355 34940 c-3 -5 -1 -10 4 -10 6 0 11 5 11 10 0 6 -2 10 -4 10 -3 0
-8 -4 -11 -10z"/>
<path d="M416 34922 c-2 -4 4 -8 14 -8 10 0 16 4 14 8 -3 4 -9 8 -14 8 -5 0
-11 -4 -14 -8z"/>
<path d="M140 34905 c0 -15 -2 -16 -17 -4 -16 13 -17 12 -5 -3 8 -9 11 -21 8
-27 -9 -14 43 -6 57 9 10 10 7 10 -11 0 -13 -6 -26 -9 -29 -6 -8 7 7 27 16 21
5 -2 16 1 26 9 15 11 16 13 1 13 -9 0 -16 -5 -16 -10 0 -5 -7 -4 -15 3 -12 10
-15 9 -15 -5z"/>
<path d="M340 34905 c0 -8 -7 -18 -15 -21 -8 -4 -15 -11 -15 -17 0 -8 3 -8 11
0 6 6 19 9 28 6 14 -4 14 -3 1 6 -8 6 -12 11 -7 12 24 5 33 4 40 -6 5 -6 7 -4
4 5 -2 8 -8 15 -13 15 -5 0 -15 4 -21 8 -9 5 -13 3 -13 -8z"/>
<path d="M46 34875 c-3 -9 -14 -15 -23 -13 -13 2 -18 -4 -18 -24 -1 -15 3 -24
7 -22 4 3 8 0 8 -5 0 -6 -4 -11 -10 -11 -5 0 -10 -5 -10 -12 0 -7 7 -5 18 5
22 20 33 22 43 5 7 -10 9 -10 9 0 0 7 6 10 13 7 6 -4 2 2 -11 12 -18 15 -20
21 -10 31 9 9 9 12 -1 12 -7 0 -9 5 -6 10 4 6 11 7 17 4 7 -4 8 -2 4 4 -10 17
-23 15 -30 -3z m-8 -51 c-4 -3 -12 5 -18 18 -12 22 -12 22 6 6 10 -10 15 -20
12 -24z"/>
<path d="M95 34870 c3 -5 8 -10 11 -10 2 0 4 5 4 10 0 6 -5 10 -11 10 -5 0 -7
-4 -4 -10z"/>
<path d="M435 34870 c-16 -7 -17 -9 -3 -9 9 -1 20 4 23 9 7 11 7 11 -20 0z"/>
<path d="M407 34835 c-4 -8 3 -10 19 -7 29 5 30 8 5 15 -11 3 -22 -1 -24 -8z"/>
<path d="M145 34831 c3 -2 -3 -10 -13 -18 -16 -12 -16 -13 1 -7 28 10 20 -12
-10 -25 -21 -10 -24 -14 -12 -21 10 -7 16 -4 21 8 4 9 7 12 7 7 1 -6 11 -11
24 -12 12 0 16 1 10 4 -15 6 -17 45 -3 59 6 6 3 10 -10 10 -10 0 -17 -2 -15
-5z"/>
<path d="M223 34810 c-28 -11 -30 -19 -3 -17 11 1 22 7 24 14 3 7 4 13 3 12
-1 0 -12 -4 -24 -9z"/>
<path d="M305 34790 c-4 -6 -11 -7 -17 -4 -7 4 -8 2 -4 -5 6 -9 11 -9 22 0 14
11 18 19 10 19 -3 0 -8 -5 -11 -10z"/>
<path d="M29 34789 c-7 -37 -7 -40 6 -29 10 8 14 7 18 -2 3 -8 6 -8 6 -2 1 10
-28 42 -30 33z"/>
<path d="M365 34769 c-4 -6 -5 -12 -2 -15 2 -3 7 2 10 11 7 17 1 20 -8 4z"/>
<path d="M263 34755 c0 -7 6 -11 14 -8 7 3 13 6 13 8 0 2 -6 5 -13 8 -8 3 -14
-1 -14 -8z"/>
<path d="M7 34739 c7 -7 15 -10 18 -7 3 3 -2 9 -12 12 -14 6 -15 5 -6 -5z"/>
<path d="M174 34742 c4 -7 2 -21 -5 -30 -12 -15 -11 -15 6 0 16 15 17 20 6 30
-11 11 -13 10 -7 0z"/>
<path d="M388 34743 c6 -2 9 -10 6 -15 -4 -7 -2 -8 5 -4 13 9 5 26 -12 25 -9
0 -8 -2 1 -6z"/>
<path d="M56 34723 c-6 -14 -5 -15 5 -6 7 7 10 15 7 18 -3 3 -9 -2 -12 -12z"/>
<path d="M106 34731 c-3 -5 1 -11 9 -14 9 -4 12 -1 8 9 -6 16 -10 17 -17 5z"/>
<path d="M215 34730 c4 -6 11 -8 16 -5 14 9 11 15 -7 15 -8 0 -12 -5 -9 -10z"/>
<path d="M346 34722 c-3 -4 4 -9 15 -9 23 -2 25 3 4 10 -8 4 -16 3 -19 -1z"/>
<path d="M406 34703 c-6 -14 -5 -15 5 -6 7 7 10 15 7 18 -3 3 -9 -2 -12 -12z"/>
<path d="M189 34683 c-13 -16 -12 -17 4 -4 16 13 21 21 13 21 -2 0 -10 -8 -17
-17z"/>
<path d="M26 34682 c-3 -5 0 -9 7 -9 7 0 23 -3 37 -6 14 -4 19 -4 12 -1 -6 3
-10 9 -8 13 3 4 -6 8 -19 9 -13 1 -26 -2 -29 -6z"/>
<path d="M285 34670 c3 -5 1 -10 -5 -10 -6 0 -8 -5 -4 -11 4 -8 9 -7 15 2 12
19 11 29 -2 29 -5 0 -7 -4 -4 -10z"/>
<path d="M126 34654 c-4 -9 -4 -19 -1 -22 3 -3 5 0 5 7 0 7 5 9 10 6 6 -3 10
-2 10 4 0 18 -18 21 -24 5z"/>
<path d="M240 34646 c0 -2 8 -10 18 -17 15 -13 16 -12 3 4 -13 16 -21 21 -21
13z"/>
<path d="M290 34626 c0 -2 8 -10 18 -17 15 -13 16 -12 3 4 -13 16 -21 21 -21
13z"/>
<path d="M35 34610 c-4 -6 -11 -7 -17 -4 -7 4 -8 2 -4 -5 4 -6 12 -9 17 -6 5
4 9 1 9 -4 0 -6 5 -11 11 -11 8 0 8 4 0 14 -9 11 -9 15 1 19 9 4 9 6 1 6 -6 1
-15 -4 -18 -9z"/>
<path d="M126 34583 c-6 -14 -5 -15 5 -6 7 7 10 15 7 18 -3 3 -9 -2 -12 -12z"/>
<path d="M325 34591 c-3 -5 0 -13 6 -17 7 -4 9 -3 5 4 -3 5 0 13 6 15 9 4 10
6 1 6 -6 1 -14 -3 -18 -8z"/>
<path d="M235 34580 c-3 -6 1 -7 9 -4 18 7 21 14 7 14 -6 0 -13 -4 -16 -10z"/>
<path d="M365 34580 c-3 -5 -1 -10 4 -10 6 0 11 5 11 10 0 6 -2 10 -4 10 -3 0
-8 -4 -11 -10z"/>
<path d="M6 34543 c-6 -14 -5 -15 5 -6 7 7 10 15 7 18 -3 3 -9 -2 -12 -12z"/>
<path d="M140 34506 c0 -2 7 -7 16 -10 8 -3 12 -2 9 4 -6 10 -25 14 -25 6z"/>
<path d="M166 34153 c-6 -14 -5 -15 5 -6 7 7 10 15 7 18 -3 3 -9 -2 -12 -12z"/>
<path d="M25395 33050 l-60 -5 0 -255 0 -255 144 -8 c79 -4 145 -6 146 -5 2 2
5 119 7 261 3 251 2 258 -17 262 -37 7 -159 10 -220 5z"/>
<path d="M19480 32792 l-55 -27 -6 -115 c-4 -63 -7 -163 -8 -222 l-1 -108 88
-2 c116 -2 112 -1 125 -19 10 -12 69 -18 332 -33 176 -10 455 -26 620 -37 353
-23 724 -43 1065 -59 135 -6 452 -22 705 -35 253 -14 557 -29 675 -35 118 -5
346 -17 505 -25 160 -8 448 -21 640 -30 193 -9 510 -25 705 -36 195 -11 495
-26 665 -34 171 -8 402 -19 515 -25 113 -5 365 -17 560 -25 195 -8 456 -22
580 -30 124 -8 293 -17 375 -20 83 -3 283 -12 445 -20 162 -8 430 -19 595 -25
343 -12 1088 -47 1155 -55 25 -3 187 -12 360 -20 173 -8 392 -19 485 -24 254
-15 522 -15 578 -2 72 17 114 37 126 59 7 13 11 97 11 221 l0 200 -32 5 c-35
6 -407 26 -933 51 -519 25 -1091 53 -1690 85 -313 16 -761 39 -995 50 -234 11
-594 29 -800 40 -746 39 -979 50 -1230 60 -140 5 -309 14 -375 19 -66 6 -226
15 -355 21 -129 6 -325 15 -435 20 -110 5 -310 14 -445 20 -376 16 -747 33
-2075 100 -220 11 -521 27 -670 35 -148 9 -400 22 -560 30 -159 8 -371 19
-470 24 -99 6 -286 15 -415 22 -129 6 -239 15 -244 20 -17 16 -60 9 -116 -19z
m744 -480 c3 -5 -23 -6 -57 -4 -87 5 -94 10 -15 11 37 1 69 -3 72 -7z m721
-33 c66 -6 122 -13 125 -16 10 -11 -477 8 -560 21 -84 14 -83 14 115 10 110
-3 254 -10 320 -15z m1523 -86 c-21 -2 -57 -2 -80 0 -24 2 -7 4 37 4 44 0 63
-2 43 -4z m600 -30 c-10 -2 -26 -2 -35 0 -10 3 -2 5 17 5 19 0 27 -2 18 -5z
m225 -12 c4 -4 -35 -5 -85 -3 -51 2 -97 8 -103 13 -11 10 176 0 188 -10z m750
-38 c-7 -2 -21 -2 -30 0 -10 3 -4 5 12 5 17 0 24 -2 18 -5z"/>
<path d="M31140 4245 c0 -30 -3 -55 -7 -55 -32 0 -871 -45 -1218 -65 -236 -14
-547 -32 -690 -40 -143 -8 -399 -22 -570 -30 -170 -8 -344 -17 -385 -20 -41
-3 -237 -14 -435 -25 -198 -11 -670 -38 -1050 -60 -379 -22 -865 -49 -1080
-60 -214 -11 -545 -29 -735 -40 -190 -11 -462 -27 -605 -35 -143 -8 -339 -19
-435 -25 -96 -6 -310 -17 -475 -25 -165 -8 -381 -19 -480 -25 -99 -5 -351 -19
-560 -30 -401 -22 -625 -35 -1290 -75 -400 -25 -1094 -68 -1286 -81 -106 -7
-139 -1 -139 24 0 9 -8 27 -18 38 -16 21 -28 22 -187 26 -93 3 -183 1 -199 -3
-68 -19 -114 -90 -148 -226 -20 -77 -23 -114 -22 -303 0 -185 3 -229 22 -318
39 -178 86 -273 166 -336 l38 -31 162 2 c88 2 175 6 191 11 17 5 40 23 53 43
13 19 29 37 35 40 7 4 155 15 331 24 348 19 336 21 336 -38 0 -16 5 -37 10
-47 11 -21 97 -64 295 -146 150 -63 298 -134 292 -140 -2 -2 -87 -6 -188 -9
-164 -4 -402 -18 -514 -30 -22 -2 -92 -7 -155 -10 -63 -4 -182 -13 -265 -21
-228 -23 -298 -43 -208 -60 36 -7 713 3 798 11 122 12 591 24 665 16 69 -6
114 -19 240 -70 85 -35 184 -77 218 -94 l64 -31 186 13 c103 7 195 14 205 17
15 5 17 19 17 119 l0 113 133 6 c72 4 247 15 387 26 294 22 669 46 950 60 287
14 379 20 435 25 28 3 147 10 265 15 230 11 561 31 910 56 118 8 287 19 375
24 88 6 266 17 395 25 129 8 336 19 460 25 124 6 241 12 260 15 19 3 139 9
265 15 127 6 318 17 425 25 107 8 251 17 320 20 69 3 213 12 320 20 107 8 285
17 395 20 110 3 319 13 465 21 146 9 373 16 505 17 l240 2 120 -41 c66 -23
174 -63 240 -89 66 -26 138 -50 161 -53 40 -4 287 13 344 24 l29 6 3 102 3
101 60 3 c114 4 861 52 980 62 111 10 158 23 124 34 -135 45 -439 56 -908 31
-179 -9 -328 -18 -332 -21 -4 -2 -79 62 -166 143 -87 82 -184 171 -216 200
-31 28 -57 56 -57 62 0 7 29 11 78 11 74 0 722 32 927 46 80 5 108 3 138 -9
20 -9 37 -20 37 -26 0 -29 127 -39 292 -22 102 11 139 28 173 79 33 51 72 191
85 311 32 289 -79 690 -213 772 -28 17 -52 19 -209 19 l-178 0 0 -55z m224
-91 c3 -8 2 -12 -4 -9 -6 3 -10 10 -10 16 0 14 7 11 14 -7z m-9949 -666 c4 -4
-1 -7 -11 -6 -44 1 -251 -12 -274 -18 -124 -28 -512 -45 -525 -24 -4 6 8 10
27 11 18 0 49 2 68 4 118 11 250 21 408 29 35 2 65 5 67 7 7 7 233 4 240 -3z
m45 0 c0 -4 -4 -8 -9 -8 -6 0 -12 4 -15 8 -3 5 1 9 9 9 8 0 15 -4 15 -9z m61
3 c-12 -8 -51 -4 -51 5 0 2 15 4 33 4 22 0 28 -3 18 -9z m-1977 -49 c3 -5 -1
-9 -9 -9 -8 0 -15 4 -15 9 0 4 4 8 9 8 6 0 12 -4 15 -8z m43 -18 c-3 -3 -12
-4 -19 -1 -8 3 -5 6 6 6 11 1 17 -2 13 -5z m782 -2 c56 -4 3 -14 -146 -28
-416 -37 -407 -37 -411 -6 -3 20 1 22 40 22 51 0 272 12 275 14 3 3 206 0 242
-2z m8280 -381 c10 -6 12 -20 8 -48 -4 -25 -2 -46 6 -56 15 -21 139 -70 342
-136 180 -59 255 -89 255 -102 0 -5 -6 -9 -12 -9 -26 0 -265 -22 -423 -40
-224 -24 -801 -65 -1205 -85 -69 -3 -264 -15 -435 -26 -599 -38 -781 -49 -870
-54 -49 -3 -205 -12 -345 -20 -140 -8 -334 -20 -430 -25 -96 -6 -283 -17 -415
-25 -327 -20 -727 -43 -860 -50 -174 -9 -820 -47 -1185 -70 -129 -8 -347 -19
-485 -25 -249 -11 -470 -26 -512 -35 -18 -4 -38 15 -117 112 -52 65 -127 158
-167 206 -39 48 -70 89 -68 91 2 1 101 8 219 15 118 6 292 16 385 21 94 6 339
19 545 30 441 23 1205 65 1440 80 91 5 244 14 340 20 96 5 321 19 500 30 179
11 447 27 595 35 625 35 1160 67 1840 110 127 8 320 19 430 25 218 13 597 37
605 39 3 0 11 -3 19 -8z"/>
</g>
</svg>
