<?xml version="1.0" standalone="no"?>
<!DOCTYPE svg PUBLIC "-//W3C//DTD SVG 20010904//EN"
 "http://www.w3.org/TR/2001/REC-SVG-20010904/DTD/svg10.dtd">
<svg version="1.0" xmlns="http://www.w3.org/2000/svg"
 width="1120.000000pt" height="928.000000pt" viewBox="0 0 1120.000000 928.000000"
 preserveAspectRatio="xMidYMid meet">

<g transform="translate(0.000000,928.000000) scale(0.100000,-0.100000)"
fill="#000000" stroke="none">
<path d="M960 8840 l0 -440 -480 0 -480 0 0 -75 0 -75 480 0 480 0 0 -299 0
-300 818 2 817 2 3 298 2 297 1475 0 1475 0 0 -301 0 -300 52 3 53 3 1 290 c1
160 2 293 3 298 0 4 665 7 1476 7 l1475 0 0 -300 0 -299 822 2 821 2 -6 298
-7 297 480 0 480 0 0 69 0 69 -474 3 c-261 2 -477 6 -480 9 -3 3 -6 203 -7
443 l-1 437 -23 0 c-14 0 -25 -7 -28 -19 -3 -12 0 -18 7 -15 7 3 12 -4 12 -16
0 -22 -12 -27 -19 -7 -3 9 -11 9 -38 0 -29 -10 -31 -10 -16 1 9 7 17 23 17 35
0 20 -5 21 -99 21 -70 0 -101 -4 -104 -12 -4 -10 -6 -10 -6 -1 -1 10 -151 12
-666 13 l-665 0 0 -440 0 -440 -542 -1 c-2169 -4 -2400 -3 -2406 6 -4 6 -7
204 -8 440 l0 430 -52 3 -52 3 0 -440 0 -441 -97 -1 c-54 -1 -129 -1 -168 -1
-38 1 -658 1 -1377 2 l-1308 0 0 440 0 440 -820 0 -820 0 0 -440z m8768 410
c14 0 14 -2 3 -9 -16 -10 -42 8 -33 24 3 5 7 4 10 -3 2 -7 11 -12 20 -12z
m302 6 c0 -3 -4 -8 -10 -11 -5 -3 -10 -1 -10 4 0 6 5 11 10 11 6 0 10 -2 10
-4z m-495 -26 c4 -6 3 -10 -2 -9 -19 3 -27 -2 -15 -10 11 -7 11 -9 0 -14 -17
-6 -20 24 -4 35 14 10 14 10 21 -2z m-115 -24 c-7 -7 -13 -7 -20 0 -6 6 -3 10
10 10 13 0 16 -4 10 -10z m488 -11 c-3 -3 -9 2 -12 12 -6 14 -5 15 5 6 7 -7
10 -15 7 -18z m-236 -43 c-7 -2 -10 -8 -6 -13 3 -5 1 -9 -5 -9 -5 0 -9 9 -8
19 1 12 6 17 16 13 10 -4 11 -7 3 -10z m449 5 c-6 -8 -7 -18 -3 -22 4 -5 1 -5
-6 -1 -10 6 -10 11 -1 22 6 8 14 14 16 14 3 0 0 -6 -6 -13z m20 -14 c-12 -20
-14 -14 -5 12 4 9 9 14 11 11 3 -2 0 -13 -6 -23z m62 -18 c-3 -9 -8 -14 -10
-11 -3 3 -2 9 2 15 9 16 15 13 8 -4z m-168 -14 c-3 -6 -11 -11 -16 -11 -5 0
-4 6 3 14 14 16 24 13 13 -3z m73 -15 c-7 -8 -17 -12 -22 -9 -4 3 -2 9 5 14
22 13 31 11 17 -5z m122 10 c0 -3 -4 -8 -10 -11 -5 -3 -10 -1 -10 4 0 6 5 11
10 11 6 0 10 -2 10 -4z m-155 -36 c3 -5 1 -10 -4 -10 -6 0 -11 5 -11 10 0 6 2
10 4 10 3 0 8 -4 11 -10z m148 -30 c-3 -11 -7 -20 -9 -20 -2 0 -4 9 -4 20 0
11 4 20 9 20 5 0 7 -9 4 -20z m-529 -5 c-4 -8 -11 -12 -16 -9 -6 4 -5 10 3 15
19 12 19 11 13 -6z m91 -15 c3 -5 -1 -10 -10 -10 -9 0 -13 5 -10 10 3 6 8 10
10 10 2 0 7 -4 10 -10z m439 -55 c-6 -16 -24 -21 -24 -7 0 11 11 22 21 22 5 0
6 -7 3 -15z m-504 -5 c0 -5 -5 -10 -11 -10 -5 0 -7 5 -4 10 3 6 8 10 11 10 2
0 4 -4 4 -10z m380 5 c0 -2 -10 -10 -22 -16 -21 -11 -22 -11 -9 4 13 16 31 23
31 12z m-76 -31 c3 -8 2 -12 -4 -9 -6 3 -10 10 -10 16 0 14 7 11 14 -7z m-37
-39 c0 -8 -4 -12 -9 -9 -5 3 -6 10 -3 15 9 13 12 11 12 -6z m-510 -89 c0 -8
-6 -12 -15 -9 -11 5 -11 7 0 14 7 5 13 9 14 9 0 0 1 -6 1 -14z m250 -12 c-3
-3 -12 -4 -19 -1 -8 3 -5 6 6 6 11 1 17 -2 13 -5z m250 -19 c0 -8 -4 -12 -9
-9 -5 3 -6 10 -3 15 9 13 12 11 12 -6z m-600 -1 c-3 -3 -12 -4 -19 -1 -8 3 -5
6 6 6 11 1 17 -2 13 -5z m646 -14 c-4 -16 -7 -17 -19 -5 -19 18 -18 25 5 25
14 0 18 -5 14 -20z m-103 -55 c0 -8 -2 -15 -4 -15 -2 0 -6 7 -10 15 -3 8 -1
15 4 15 6 0 10 -7 10 -15z m90 -15 c-20 -13 -37 -12 -46 2 -4 6 -3 9 2 6 5 -3
18 -2 29 2 25 9 35 2 15 -10z m-143 -80 c-1 -11 -5 -20 -9 -20 -10 0 -10 4 -2
24 8 22 13 20 11 -4z m-152 0 c3 -5 1 -10 -4 -10 -6 0 -11 5 -11 10 0 6 2 10
4 10 3 0 8 -4 11 -10z m225 4 c0 -8 -19 -13 -24 -6 -3 5 1 9 9 9 8 0 15 -2 15
-3z m57 -16 c-3 -8 -6 -5 -6 6 -1 11 2 17 5 13 3 -3 4 -12 1 -19z m-302 -58
c3 -5 -1 -10 -10 -10 -9 0 -13 5 -10 10 3 6 8 10 10 10 2 0 7 -4 10 -10z m175
0 c0 -5 -5 -10 -11 -10 -5 0 -7 5 -4 10 3 6 8 10 11 10 2 0 4 -4 4 -10z m80 0
c0 -5 -5 -10 -11 -10 -5 0 -7 5 -4 10 3 6 8 10 11 10 2 0 4 -4 4 -10z"/>
<path d="M0 5585 l0 -2050 76 -25 c42 -13 83 -30 92 -37 16 -12 16 -14 -2 -28
-14 -10 -43 -15 -93 -15 l-73 0 0 -1715 0 -1715 1810 0 1810 0 -4 22 c-3 13
-10 79 -16 148 -6 69 -17 195 -25 280 -18 187 -19 186 85 175 117 -11 312 -13
488 -3 96 5 176 7 180 4 3 -4 5 -30 3 -59 -2 -53 -47 -490 -56 -539 l-4 -28
1410 0 1411 0 -6 27 c-3 16 -15 132 -26 258 -11 127 -22 253 -25 282 -3 28 -1
54 4 57 5 3 110 2 232 -4 123 -5 285 -6 359 -2 74 5 141 6 148 4 16 -5 15 -76
-3 -277 -7 -88 -17 -191 -20 -230 -3 -38 -8 -80 -11 -92 l-4 -23 1730 0 1730
0 0 1273 0 1273 -89 12 c-116 16 -154 15 -198 -3 -26 -11 -40 -12 -47 -5 -13
13 -23 559 -17 973 l3 277 174 0 174 0 0 1915 0 1915 -2787 0 c-1534 0 -4054
1 -5601 2 l-2812 3 0 -2050z m8733 1378 c4 -21 6 -584 7 -1251 l1 -1213 -3131
2 -3130 1 0 1242 c0 684 3 1246 7 1249 3 4 1409 7 3123 7 l3117 0 6 -37z
m-5458 -3726 l0 -558 -32 -25 c-21 -16 -33 -34 -33 -50 0 -39 -25 -88 -53
-103 -16 -9 -38 -11 -64 -7 -85 15 -106 13 -122 -16 -13 -23 -13 -35 -2 -93
13 -63 12 -69 -6 -93 -14 -19 -32 -29 -59 -32 -43 -5 -55 -33 -18 -38 12 -2
31 -14 43 -26 20 -22 21 -28 11 -67 -8 -29 -25 -55 -52 -80 -45 -41 -46 -60
-1 -81 22 -10 32 -27 47 -73 31 -97 48 -139 70 -163 11 -12 19 -36 19 -55 0
-50 -15 -141 -25 -153 -5 -7 -30 -17 -56 -23 -26 -6 -68 -21 -94 -33 -84 -38
-79 -66 -73 496 4 270 8 547 11 616 2 69 4 141 2 160 -2 42 -2 47 7 405 3 154
5 298 4 320 -1 22 -2 56 -1 75 8 220 10 242 22 250 8 5 113 8 234 7 l221 -2 0
-558z m5153 113 c1 -245 0 -460 -3 -478 -5 -27 -10 -33 -28 -30 -18 2 -23 12
-28 50 -13 86 -25 100 -114 130 -98 32 -134 34 -185 8 -50 -26 -125 -27 -135
-2 -9 21 -20 735 -12 757 6 13 36 15 254 13 l248 -3 3 -445z m2272 180 c6
-319 -2 -1106 -12 -1115 -13 -14 -71 8 -107 40 -51 45 -72 55 -117 51 -21 -2
-40 -4 -41 -5 -2 -1 -4 0 -5 1 -2 1 -13 -4 -26 -11 -22 -12 -27 -8 -77 45 -42
46 -54 66 -59 102 -3 25 -6 296 -6 604 l0 558 223 -2 222 -3 5 -265z m-6204
117 c5 -4 8 -90 8 -190 -1 -172 -2 -184 -24 -220 -23 -38 -23 -39 -15 -285 7
-271 4 -297 -44 -306 -68 -15 -222 -29 -279 -27 -53 2 -73 -3 -128 -29 l-64
-32 -56 23 c-93 39 -89 16 -89 474 -1 220 -4 406 -9 413 -4 7 -30 24 -58 38
-41 21 -62 25 -116 23 l-67 -3 -9 41 c-5 23 -6 53 -2 68 l7 26 468 -3 c258 -2
473 -7 477 -11z m391 0 c12 -13 7 -591 -6 -672 -7 -43 -18 -75 -28 -82 -27
-21 -76 -15 -113 12 -22 16 -47 25 -71 25 -21 0 -40 3 -42 8 -3 4 -8 43 -12
87 -4 44 -13 124 -21 177 -8 54 -14 174 -14 267 0 151 2 171 18 181 20 12 276
10 289 -3z m2763 -2 c11 -13 12 -142 7 -652 -3 -378 -10 -640 -15 -645 -16
-16 -92 99 -92 140 0 27 -8 43 -37 72 -21 21 -49 52 -62 70 -26 34 -134 90
-176 90 -12 0 -39 -13 -60 -30 -22 -17 -50 -30 -66 -30 -38 0 -59 -24 -57 -66
1 -38 -13 -54 -49 -54 -12 0 -34 -10 -48 -23 -23 -19 -28 -34 -35 -97 -6 -58
-13 -78 -30 -92 -46 -37 -163 -11 -182 41 -7 19 -2 29 32 60 23 21 36 41 32
47 -4 7 -34 25 -67 40 l-60 29 2 45 c4 73 4 110 1 445 -2 176 -1 385 2 465 5
143 5 144 30 151 14 4 226 7 471 8 391 1 448 -1 459 -14z m-2185 -160 l0 -50
-144 -3 c-162 -3 -191 6 -191 56 0 50 11 53 180 50 l155 -3 0 -50z m564 46
c20 -6 27 -15 29 -38 6 -56 -13 -63 -167 -63 -147 0 -161 4 -161 50 0 29 9 45
30 53 21 8 236 6 269 -2z m-571 -236 c6 -2 12 -20 12 -38 0 -19 -6 -39 -12
-44 -7 -5 -61 -9 -120 -8 -90 0 -110 4 -128 20 -25 23 -23 56 6 70 19 9 213 9
242 0z m-5118 -9 c6 -8 10 -25 8 -38 -4 -31 -53 -35 -113 -9 -41 18 -55 38
-38 54 13 14 130 7 143 -7z m561 3 c41 -14 59 -34 52 -59 -5 -17 -17 -19 -127
-22 -66 -2 -167 -2 -224 0 -97 3 -103 4 -113 26 -8 17 -8 29 0 45 11 20 18 21
195 21 109 0 197 -5 217 -11z m5095 -14 c17 -23 17 -27 0 -51 -12 -16 -29 -19
-124 -22 -118 -4 -142 5 -142 52 0 43 17 48 139 44 97 -4 116 -7 127 -23z
m4692 -1067 c7 -7 12 -36 12 -65 0 -65 -11 -71 -77 -49 -25 9 -64 16 -85 16
-26 0 -41 5 -45 16 -9 25 10 67 37 81 32 16 142 17 158 1z m-3724 -219 c18
-14 32 -41 43 -80 18 -67 44 -83 85 -55 34 24 61 19 95 -16 43 -46 54 -87 46
-176 -8 -106 -14 -116 -68 -109 -34 5 -48 2 -69 -14 -15 -11 -34 -18 -44 -15
-10 4 -29 -4 -46 -19 -23 -20 -40 -25 -82 -25 -115 0 -145 52 -64 110 44 31
40 64 -10 90 -53 27 -54 58 -2 97 20 15 40 32 44 38 14 19 8 59 -13 81 -26 27
-19 76 14 99 28 20 39 19 71 -6z m440 -165 c8 -3 20 -20 26 -38 8 -26 6 -43
-10 -91 -11 -32 -20 -75 -20 -96 0 -44 -26 -65 -66 -55 -27 7 -31 20 -38 127
-3 55 0 85 10 104 24 47 58 64 98 49z m3220 -235 c25 -22 46 -47 46 -56 0 -8
-13 -28 -30 -44 -33 -33 -59 -33 -95 2 -32 31 -17 139 19 139 7 0 34 -18 60
-41z m-2331 -83 c7 -17 -1 -26 -24 -26 -21 0 -33 15 -24 30 9 15 42 12 48 -4z
m127 -10 c0 -28 -24 -41 -40 -21 -16 20 -5 45 20 45 14 0 20 -7 20 -24z m2241
-734 c21 -71 71 -127 148 -164 38 -18 70 -35 70 -38 0 -3 -32 -20 -70 -39 -61
-29 -76 -41 -109 -92 -21 -32 -41 -70 -44 -84 -9 -37 -21 -31 -41 22 -24 62
-106 144 -168 168 -26 10 -47 21 -47 25 0 3 24 16 53 28 69 29 130 90 158 158
13 30 26 54 30 54 5 0 13 -17 20 -38z"/>
<path d="M2560 6924 c0 -8 364 -10 1328 -6 l1328 5 -3 -104 c-2 -57 -13 -157
-25 -221 -22 -117 -22 -117 -62 -147 -169 -121 -331 -356 -372 -537 -24 -109
-10 -270 30 -339 125 -212 443 -269 807 -144 35 12 90 35 121 50 49 25 70 29
136 29 l79 0 7 49 c6 46 11 53 77 107 155 127 274 283 330 433 28 75 33 99 33
186 2 243 -98 368 -342 426 -159 39 -378 10 -575 -75 -45 -20 -84 -32 -88 -28
-12 14 -58 157 -68 212 -6 30 -13 65 -17 78 l-6 22 1686 -2 c1119 -2 1686 0
1686 7 0 7 -1022 10 -3045 10 -2212 0 -3045 -3 -3045 -11z m2754 -338 c8 -30
13 -63 11 -73 -2 -10 -7 -35 -10 -56 -5 -33 -9 -37 -26 -32 -18 6 -20 3 -17
-21 4 -34 -17 -43 -33 -13 -14 28 -7 126 17 228 16 72 17 73 30 48 8 -14 20
-50 28 -81z m511 -8 c0 -52 -8 -56 -38 -16 -24 33 -15 71 16 66 18 -3 21 -10
22 -50z m-382 -128 c14 -11 32 -20 40 -20 8 0 19 -6 25 -13 9 -11 -5 -14 -73
-16 -75 -2 -85 0 -85 15 0 23 29 54 50 54 10 0 29 -9 43 -20z m-201 -92 c14
-31 15 -44 6 -55 -16 -20 -27 -4 -34 50 -8 58 5 61 28 5z m168 -29 c46 -48 50
-71 15 -87 -23 -11 -27 -9 -35 14 -6 14 -10 34 -10 44 0 25 -14 32 -47 23
l-28 -7 30 -6 c24 -4 31 -11 36 -40 4 -19 4 -39 -1 -43 -4 -5 -11 10 -15 32
-10 61 -33 52 -45 -19 -6 -41 -40 -57 -40 -18 0 33 45 124 67 137 27 16 30 15
73 -30z m116 -36 c4 -27 2 -53 -5 -66 -11 -20 -11 -20 -6 6 8 40 -2 51 -31 32
l-25 -16 7 38 c13 76 49 80 60 6z m-51 -77 c25 -18 13 -46 -20 -46 -29 0 -31
-8 -10 -36 15 -18 16 -18 48 18 31 35 33 36 59 22 27 -14 35 -29 37 -76 1 -22
-4 -28 -20 -28 -12 0 -49 -18 -82 -41 -34 -22 -68 -38 -77 -35 -8 2 -46 17
-85 31 -38 15 -83 28 -100 29 -37 1 -57 24 -44 48 5 10 7 18 3 18 -4 0 2 10
14 23 12 13 19 27 15 32 -5 4 9 5 30 2 23 -4 51 0 72 9 19 8 46 14 60 14 15 0
33 7 41 15 19 19 35 19 59 1z m371 -35 c5 -5 33 -16 62 -26 91 -29 60 -55 -40
-33 -57 13 -63 17 -66 41 -3 21 1 27 15 27 11 0 23 -4 29 -9z m-461 -270 c19
-7 31 -19 32 -31 1 -11 -2 -18 -7 -15 -6 3 -7 -1 -4 -9 8 -21 24 -20 24 1 0
23 29 53 51 53 16 0 16 -2 -4 -23 -12 -13 -24 -22 -27 -21 -4 2 -6 -12 -6 -31
0 -41 -17 -73 -54 -102 l-28 -23 -27 46 c-33 56 -45 52 -15 -5 11 -23 17 -41
13 -42 -5 0 -19 -2 -32 -5 -20 -4 -22 -2 -11 11 20 24 -4 17 -28 -8 -26 -27
-19 -41 12 -25 16 8 15 4 -8 -20 -16 -17 -33 -29 -38 -26 -5 3 -8 2 -7 -3 3
-20 -2 -34 -11 -28 -5 3 -10 33 -10 66 0 35 4 58 9 54 6 -3 7 6 2 22 -4 16 -6
33 -4 40 2 6 -1 15 -8 19 -8 5 -9 3 -4 -6 5 -8 4 -11 -3 -6 -6 4 -9 13 -6 21
4 8 10 12 15 9 5 -3 9 4 9 15 0 35 38 52 90 40 25 -6 49 -14 55 -20 11 -11 25
-12 25 -1 0 10 -85 52 -106 52 -13 0 -14 3 -5 14 12 14 57 9 116 -13z m-198
-173 c-3 -8 -6 -5 -6 6 -1 11 2 17 5 13 3 -3 4 -12 1 -19z m368 -26 c-2 -9
-11 -54 -21 -99 l-17 -81 -38 -4 c-33 -3 -39 -1 -39 15 0 15 3 17 14 8 11 -9
15 -7 19 8 3 11 -1 25 -8 31 -19 16 21 112 55 132 29 17 39 15 35 -10z m-90
-132 c3 -5 1 -10 -4 -10 -6 0 -11 5 -11 10 0 6 2 10 4 10 3 0 8 -4 11 -10z"/>
<path d="M5382 6082 c-9 -3 -5 -12 13 -28 32 -30 37 -30 72 0 33 28 24 45 -13
26 -18 -10 -30 -11 -42 -4 -9 6 -23 9 -30 6z"/>
<path d="M6545 6758 c-17 -54 -26 -107 -32 -198 -3 -62 -12 -113 -19 -125 -10
-13 -14 -53 -14 -127 0 -94 2 -108 17 -108 14 0 15 11 10 95 -4 59 -3 95 3 95
6 0 10 -164 10 -449 0 -247 3 -463 6 -480 6 -28 10 -31 43 -31 70 0 66 -34 69
517 5 647 -10 823 -69 823 -11 0 -21 -6 -24 -12z m34 -808 l3 -470 -21 0 -21
0 0 470 c0 441 1 470 18 470 16 0 17 -30 21 -470z"/>
<path d="M4487 6742 c-12 -13 -17 -35 -16 -78 l2 -59 7 61 c7 64 15 84 31 84
6 0 3 -10 -5 -22 -11 -15 -16 -45 -16 -90 l0 -68 65 0 65 0 0 75 c0 62 -4 79
-20 95 -26 26 -90 27 -113 2z"/>
<path d="M4472 6083 c3 -355 5 -408 18 -408 13 0 15 52 15 405 0 378 -1 405
-18 408 -16 3 -17 -20 -15 -405z"/>
<path d="M4530 6080 c0 -386 1 -411 18 -408 16 3 17 30 17 408 0 378 -1 405
-17 408 -17 3 -18 -22 -18 -408z"/>
<path d="M4592 6083 c2 -264 7 -408 13 -408 6 0 11 144 13 408 2 359 0 407
-13 407 -13 0 -15 -48 -13 -407z"/>
<path d="M4538 5494 c3 -19 7 -22 13 -12 13 20 11 38 -5 38 -9 0 -12 -8 -8
-26z"/>
<path d="M4122 4993 l3 -328 1433 -3 1432 -2 0 330 0 330 -1435 0 -1435 0 2
-327z m866 255 c32 -10 34 -12 27 -47 -17 -91 -171 -402 -233 -468 -20 -22
-29 -25 -64 -20 -54 7 -70 25 -79 89 -9 64 -11 420 -3 442 5 12 20 16 64 16
66 0 83 -13 74 -56 -6 -34 -21 -284 -16 -284 7 0 62 131 96 230 20 57 42 107
48 111 11 7 31 4 86 -13z m1552 9 c21 -11 25 -19 22 -53 -6 -92 -10 -103 -48
-110 -28 -5 -40 -2 -59 16 -25 24 -55 21 -55 -4 0 -8 20 -53 45 -100 64 -122
60 -186 -15 -249 -38 -33 -88 -47 -163 -47 -86 0 -97 9 -97 78 0 85 7 100 49
112 51 14 56 13 69 -15 14 -31 52 -34 52 -4 0 11 -19 52 -41 90 -66 111 -61
197 14 251 59 42 178 60 227 35z m-1957 -14 c11 -7 -1 -93 -15 -110 -7 -9 -41
-13 -101 -13 l-90 0 19 -21 c10 -11 19 -30 19 -42 0 -20 5 -22 57 -22 74 0 81
-8 65 -70 l-12 -50 -75 -5 c-73 -5 -75 -6 -78 -32 -3 -28 -3 -28 60 -28 84 0
93 -7 85 -65 -4 -26 -9 -51 -13 -56 -3 -5 -58 -9 -123 -9 -112 0 -119 1 -141
25 -21 22 -22 31 -17 89 4 38 2 68 -3 71 -25 15 3 125 31 125 12 0 21 10 25
28 3 15 8 34 10 43 3 9 -3 19 -12 23 -14 5 -15 15 -10 52 12 89 9 88 169 80
77 -4 145 -10 150 -13z m1124 -2 c115 -53 101 -238 -25 -321 l-22 -15 51 -85
c37 -62 49 -89 42 -100 -13 -20 -85 -45 -106 -37 -9 3 -38 48 -63 99 l-47 93
-15 -78 c-12 -68 -17 -78 -38 -83 -30 -8 -93 1 -107 15 -6 6 4 74 27 183 20
95 36 177 36 181 0 4 -11 7 -25 7 -19 0 -25 5 -25 23 0 41 21 97 40 107 62 33
214 39 277 11z m482 10 c10 -6 11 -20 6 -52 -13 -78 -15 -79 -117 -79 -90 0
-91 0 -73 -20 10 -11 15 -28 12 -39 -4 -18 1 -20 62 -23 l66 -3 -2 -42 c-3
-74 -14 -83 -93 -83 -54 0 -70 -3 -70 -14 0 -8 -3 -21 -6 -30 -5 -13 7 -16 73
-18 l78 -3 -1 -36 c-1 -19 -4 -48 -8 -62 l-6 -27 -116 0 c-63 0 -123 4 -133
10 -32 17 -45 64 -32 116 9 33 9 50 2 57 -26 26 -5 125 29 134 25 7 38 66 20
88 -15 18 -8 98 10 120 10 12 40 15 149 15 75 0 142 -4 150 -9z m734 -50 c-3
-73 -12 -81 -92 -81 l-66 0 27 -23 27 -22 -38 -180 -38 -180 -56 0 c-94 1 -94
3 -53 196 20 90 38 174 41 187 5 21 2 22 -46 22 l-52 0 7 57 c4 31 12 63 18
70 8 10 46 13 167 11 l156 -3 -2 -54z m-1556 -6 c-3 -30 -8 -59 -12 -65 -3 -6
-48 -10 -103 -11 -91 0 -96 -1 -74 -16 12 -8 22 -26 22 -39 0 -21 5 -23 63
-26 71 -3 77 -13 57 -87 l-11 -40 -71 -3 c-68 -3 -72 -4 -79 -30 l-7 -27 76
-3 c87 -3 93 -10 72 -87 l-11 -41 -118 0 c-110 0 -119 1 -140 23 -23 25 -29
69 -17 124 4 19 3 34 -3 38 -26 16 -3 120 29 128 24 6 38 71 20 92 -12 15 -8
94 6 116 3 5 73 9 156 9 l151 0 -6 -55z"/>
<path d="M5532 5123 c-9 -3 -3 -12 17 -24 29 -17 31 -22 25 -59 -5 -33 -4 -40
10 -40 51 0 89 97 47 120 -20 10 -76 12 -99 3z"/>
<path d="M7585 5052 c-40 -3 -76 -22 -42 -22 16 0 17 -7 11 -60 -5 -50 -4 -60
9 -60 10 0 17 17 23 57 7 47 13 58 31 63 36 8 12 25 -32 22z"/>
<path d="M7877 5053 c-19 -5 -47 -52 -47 -80 0 -54 76 -87 100 -44 17 33 12
61 -11 61 -18 0 -20 -4 -15 -25 5 -20 3 -25 -13 -25 -47 0 -27 83 22 88 16 2
27 8 24 15 -4 13 -32 18 -60 10z"/>
<path d="M8037 5053 c-10 -3 -16 -11 -13 -18 2 -7 -2 -37 -10 -67 -7 -29 -14
-54 -14 -55 0 -2 6 -3 14 -3 8 0 18 9 21 20 3 11 15 20 25 20 19 0 60 44 60
64 -1 30 -43 50 -83 39z m53 -42 c0 -10 -22 -31 -32 -31 -9 0 -11 34 -2 43 7
7 34 -2 34 -12z"/>
<path d="M8164 5052 c-18 -3 -22 -12 -28 -69 -4 -36 -5 -68 -2 -70 9 -10 26 8
26 28 0 27 17 24 24 -6 4 -14 14 -25 22 -25 13 0 15 7 11 29 -4 19 -1 33 8 41
8 7 15 23 15 35 0 25 -38 44 -76 37z m41 -42 c0 -8 -8 -16 -17 -18 -13 -2 -18
3 -18 18 0 15 5 20 18 18 9 -2 17 -10 17 -18z"/>
<path d="M8303 5052 c-37 -3 -43 -6 -43 -26 0 -13 -3 -44 -6 -70 l-7 -46 42 0
c30 0 41 4 41 15 0 9 -10 15 -26 15 -34 0 -26 24 9 28 34 4 35 18 2 26 -34 9
-32 26 4 26 16 0 31 6 34 15 8 19 1 21 -50 17z"/>
<path d="M8388 5049 c-24 -14 -23 -52 2 -74 28 -25 25 -35 -11 -35 -38 0 -35
-24 4 -28 63 -8 91 50 41 83 -28 18 -24 30 9 30 31 0 28 29 -3 32 -14 2 -33
-2 -42 -8z"/>
<path d="M8498 5049 c-24 -14 -23 -52 2 -74 27 -24 25 -33 -7 -37 -37 -4 -36
-22 0 -26 30 -4 67 21 67 44 0 7 -12 22 -26 33 -29 23 -24 44 9 39 14 -2 22 2
22 12 0 18 -43 24 -67 9z"/>
<path d="M7103 5028 c0 -13 -3 -44 -7 -70 -6 -35 -5 -48 4 -48 6 0 14 8 17 18
2 10 19 22 36 28 21 6 35 18 41 35 15 44 2 59 -48 59 -39 0 -44 -2 -43 -22z
m63 -25 c-3 -8 -6 -17 -6 -19 0 -2 -7 -4 -15 -4 -15 0 -21 31 -9 43 11 11 35
-5 30 -20z"/>
<path d="M7214 4980 c-9 -64 -8 -70 8 -70 11 0 18 7 18 20 0 11 4 20 9 20 5 0
13 -9 16 -20 3 -11 15 -20 26 -20 22 0 23 4 8 31 -8 16 -7 25 5 38 33 37 12
71 -44 71 l-36 0 -10 -70z m76 31 c0 -13 -26 -32 -33 -24 -14 13 -6 33 13 33
11 0 20 -4 20 -9z"/>
<path d="M7341 4993 c-14 -73 -14 -83 3 -83 17 0 22 15 31 88 6 42 4 52 -8 52
-9 0 -18 -19 -26 -57z"/>
<path d="M7405 5003 c-3 -27 -9 -58 -12 -70 -4 -17 -1 -23 11 -23 11 0 16 9
16 28 0 43 12 47 30 11 8 -18 20 -34 27 -36 11 -4 33 75 33 117 0 30 -19 24
-26 -7 -3 -16 -7 -32 -8 -38 -2 -5 -10 7 -19 28 -22 52 -43 48 -52 -10z"/>
<path d="M7657 5037 c-3 -8 -8 -39 -12 -70 -6 -48 -5 -57 8 -57 10 0 17 14 22
43 3 23 8 54 11 70 4 19 2 27 -9 27 -8 0 -17 -6 -20 -13z"/>
<path d="M7717 5043 c-3 -5 -8 -37 -12 -72 -6 -51 -5 -63 6 -59 8 3 17 20 20
39 l6 34 16 -37 c24 -53 43 -49 52 10 3 26 9 57 12 70 4 15 1 22 -10 22 -8 0
-17 -14 -22 -32 l-7 -33 -16 33 c-15 30 -35 41 -45 25z"/>
</g>
</svg>
