<?xml version="1.0" standalone="no"?>
<!DOCTYPE svg PUBLIC "-//W3C//DTD SVG 20010904//EN"
 "http://www.w3.org/TR/2001/REC-SVG-20010904/DTD/svg10.dtd">
<svg version="1.0" xmlns="http://www.w3.org/2000/svg"
 width="330.000000pt" height="442.000000pt" viewBox="0 0 330.000000 442.000000"
 preserveAspectRatio="xMidYMid meet">

<g transform="translate(0.000000,442.000000) scale(0.100000,-0.100000)"
fill="#000000" stroke="none">
<path d="M1743 4160 c-185 -25 -407 -125 -602 -270 -138 -103 -237 -228 -277
-349 -51 -158 32 -280 192 -281 117 0 227 47 438 190 158 106 244 153 336 186
125 43 204 25 247 -56 73 -137 -30 -374 -259 -599 -103 -101 -215 -185 -312
-235 -85 -44 -162 -58 -172 -32 -13 35 11 72 121 186 106 109 115 121 115 157
0 68 -52 113 -130 113 -149 0 -321 -212 -321 -397 0 -202 168 -248 436 -119
123 59 281 166 409 275 196 169 311 334 373 538 36 121 38 289 4 375 -31 81
-101 170 -172 223 -104 77 -276 115 -426 95z"/>
<path d="M883 2160 c-131 -80 -33 -265 111 -210 33 12 66 66 66 105 0 61 -63
125 -122 125 -13 0 -37 -9 -55 -20z"/>
<path d="M1800 2069 c-25 -4 -60 -11 -78 -14 l-33 -6 3 -392 c3 -375 4 -394
24 -438 34 -73 120 -119 220 -119 68 0 74 5 74 65 l0 53 -37 7 c-87 16 -93 34
-93 303 l0 202 65 0 65 0 0 70 0 70 -65 0 -65 0 0 105 c0 117 6 111 -80 94z"/>
<path d="M2925 2073 c-11 -2 -44 -9 -72 -14 l-53 -10 0 -369 c0 -232 4 -388
11 -421 22 -103 113 -163 236 -157 l58 3 3 57 3 58 -41 6 c-26 4 -48 16 -60
32 -19 24 -20 42 -20 423 l0 399 -22 -1 c-13 -1 -32 -3 -43 -6z"/>
<path d="M390 1883 c-64 -6 -230 -61 -230 -77 0 -6 40 -100 44 -104 2 -1 37 9
79 23 85 28 145 32 186 10 34 -17 41 -33 41 -91 l0 -44 -98 0 c-116 0 -172
-16 -230 -65 -50 -44 -75 -103 -75 -180 1 -106 58 -191 162 -239 98 -44 288
-15 384 58 l42 32 0 255 c0 243 -1 256 -22 295 -49 91 -152 137 -283 127z
m118 -520 l-3 -118 -44 -14 c-38 -12 -50 -12 -84 0 -71 25 -99 118 -57 187 25
41 70 61 138 62 l53 0 -3 -117z"/>
<path d="M1395 1867 c-63 -21 -123 -55 -165 -94 l-40 -35 0 -314 0 -314 95 0
95 0 0 299 0 299 38 18 c25 13 59 19 103 19 l66 0 26 57 c18 42 22 60 14 65
-22 14 -191 13 -232 0z"/>
<path d="M2292 1862 c-222 -80 -287 -476 -111 -676 69 -79 206 -113 329 -82
52 14 150 55 169 72 2 2 -6 28 -19 58 l-22 55 -48 -24 c-85 -43 -186 -49 -249
-16 -32 18 -60 87 -63 157 l-3 59 204 3 204 2 -6 83 c-12 157 -59 251 -150
296 -66 33 -164 38 -235 13z m150 -142 c22 -17 48 -82 48 -119 0 -7 -38 -11
-105 -11 -117 0 -121 3 -91 74 29 69 99 95 148 56z"/>
<path d="M980 1863 c-14 -2 -49 -8 -77 -14 l-53 -10 0 -365 0 -364 90 0 90 0
0 380 c0 298 -3 380 -12 379 -7 -1 -24 -4 -38 -6z"/>
<path d="M705 599 c-11 -6 -32 -25 -47 -42 l-28 -31 0 37 c0 26 -4 37 -15 37
-13 0 -15 -27 -15 -180 0 -146 3 -180 14 -180 10 0 15 27 18 118 5 125 17 166
60 196 28 20 78 21 104 2 17 -13 20 -31 24 -163 4 -130 7 -148 23 -151 15 -3
17 7 17 100 0 57 5 120 10 140 20 71 104 111 156 74 17 -13 20 -31 24 -163 4
-123 8 -148 20 -148 12 0 15 24 18 141 2 132 1 142 -20 174 -43 64 -115 65
-177 3 -20 -20 -37 -30 -39 -23 -2 6 -14 23 -26 36 -24 29 -89 41 -121 23z"/>
<path d="M1275 596 c-66 -29 -95 -84 -95 -179 0 -130 83 -201 204 -175 61 13
101 59 116 132 32 155 -95 280 -225 222z m132 -41 c40 -27 55 -61 56 -128 1
-105 -40 -157 -124 -157 -86 0 -124 54 -117 169 3 51 9 75 23 92 44 48 110 58
162 24z"/>
<path d="M1703 595 c-17 -7 -40 -26 -50 -41 l-18 -28 -5 34 c-3 22 -11 35 -20
35 -13 0 -15 -26 -15 -175 0 -149 2 -175 15 -175 12 0 16 22 20 120 3 67 11
130 18 142 34 60 116 82 163 44 23 -18 24 -27 29 -163 4 -118 8 -143 20 -143
12 0 15 23 18 137 3 158 -6 190 -63 214 -42 17 -71 17 -112 -1z"/>
<path d="M2065 596 c-42 -18 -83 -69 -91 -112 -11 -59 0 -152 22 -181 37 -49
67 -65 127 -65 70 -1 136 37 137 80 0 20 -20 14 -52 -18 -40 -40 -111 -43
-155 -6 -26 22 -53 81 -53 115 0 8 42 11 140 11 l140 0 0 24 c0 116 -114 196
-215 152z m137 -53 c15 -15 30 -43 34 -60 l7 -33 -121 0 -121 0 9 32 c11 35
45 76 75 89 33 15 87 2 117 -28z"/>
<path d="M2326 592 c-2 -4 27 -83 65 -175 l69 -168 -30 -70 c-35 -84 -35 -79
-12 -79 13 0 42 59 120 242 67 155 100 244 93 251 -5 5 -13 7 -18 4 -5 -3 -35
-69 -67 -146 -33 -78 -62 -141 -66 -141 -3 0 -33 65 -65 145 -52 130 -73 162
-89 137z"/>
</g>
</svg>
