<?xml version="1.0" standalone="no"?>
<!DOCTYPE svg PUBLIC "-//W3C//DTD SVG 20010904//EN"
 "http://www.w3.org/TR/2001/REC-SVG-20010904/DTD/svg10.dtd">
<svg version="1.0" xmlns="http://www.w3.org/2000/svg"
 width="333.000000pt" height="333.000000pt" viewBox="0 0 333.000000 333.000000"
 preserveAspectRatio="xMidYMid meet">

<g transform="translate(0.000000,333.000000) scale(0.100000,-0.100000)"
fill="#000000" stroke="none">
<path d="M0 1665 l0 -1665 1665 0 1665 0 0 1665 0 1665 -1665 0 -1665 0 0
-1665z m1000 747 c91 -30 161 -94 209 -190 14 -29 100 -266 191 -525 l165
-472 35 0 35 0 7 200 c4 110 5 281 1 380 -6 203 7 344 38 415 42 95 151 174
281 205 85 20 431 21 504 1 128 -34 253 -131 310 -241 44 -84 58 -151 51 -252
-4 -71 -11 -97 -41 -157 -19 -40 -44 -80 -56 -91 l-20 -18 26 -34 c87 -114
117 -275 76 -409 -26 -85 -67 -148 -138 -213 -98 -90 -214 -131 -369 -131
l-85 0 0 165 0 165 93 0 c101 0 140 15 173 65 25 39 24 116 -2 151 -42 57 -65
67 -173 72 l-101 5 0 163 0 164 98 0 c78 0 103 4 129 20 83 50 94 157 22 226
l-30 29 -174 3 c-148 3 -180 1 -210 -14 -72 -34 -69 -19 -75 -499 l-5 -430
-33 -67 c-132 -268 -508 -285 -653 -31 -18 31 -110 274 -205 541 -95 267 -179
489 -186 493 -20 13 -35 11 -52 -7 -14 -14 -16 -83 -16 -615 l0 -599 -160 0
-161 0 3 638 3 637 32 66 c85 173 278 253 463 191z"/>
</g>
</svg>
