<?xml version="1.0" encoding="UTF-8"?>
<svg version="1.1" xmlns="http://www.w3.org/2000/svg" width="274" height="184">
<path d="M0 0 C90.42 0 180.84 0 274 0 C274 60.72 274 121.44 274 184 C183.58 184 93.16 184 0 184 C0 123.28 0 62.56 0 0 Z " fill="#40B42F" transform="translate(0,0)"/>
<path d="M0 0 C2.33656878 0.2472961 4.62313657 0.56360568 6.94140625 0.93359375 C7.6761618 1.0465831 8.41091736 1.15957245 9.16793823 1.27598572 C11.6337537 1.65723069 14.09810993 2.0471546 16.5625 2.4375 C18.28325403 2.70608727 20.00403914 2.97447546 21.72485352 3.24267578 C43.51094005 6.65666078 65.25579378 10.33041115 87 14 C87 15.98 87 17.96 87 20 C89.31 20 91.62 20 94 20 C93.505 21.485 93.505 21.485 93 23 C91.88625 23.20625 90.7725 23.4125 89.625 23.625 C86.01097138 24.54438617 86.01097138 24.54438617 85.09301758 26.67456055 C84.88314209 27.38394775 84.6732666 28.09333496 84.45703125 28.82421875 C84.21500977 29.63632812 83.97298828 30.4484375 83.72363281 31.28515625 C82.40535281 36.23093007 81.21489049 41.20073707 80.0625 46.1875 C78.25819451 53.85013396 76.37583057 61.44735811 74.13671875 68.99609375 C72.07046109 76.11406901 70.3037348 83.31932984 68.46118164 90.49755859 C67.04156407 96.02000952 65.60854595 101.52935116 64 107 C59.26210835 105.55676531 55.01141849 103.62773267 50.625 101.375 C49.98433594 101.05015625 49.34367187 100.7253125 48.68359375 100.390625 C47.12052499 99.59742593 45.55999378 98.79922969 44 98 C43.01 99.98 42.02 101.96 41 104 C39.515 103.505 39.515 103.505 38 103 C37.0859375 100.96875 37.0859375 100.96875 36.375 98.5 C35.65305469 95.48411921 35.65305469 95.48411921 34 93 C33.34 96.96 32.68 100.92 32 105 C31.67 105 31.34 105 31 105 C30.8453125 103.4221875 30.8453125 103.4221875 30.6875 101.8125 C30.01174757 98.06514563 29.03379011 96.13542642 27 93 C26.66666667 91.66666667 26.33333333 90.33333333 26 89 C25.01 88.505 25.01 88.505 24 88 C24 88.66 24 89.32 24 90 C23.01 90 22.02 90 21 90 C20.67 89.01 20.34 88.02 20 87 C17.73027986 85.61642932 15.51570174 84.40949194 13.140625 83.234375 C12.44040222 82.87788879 11.74017944 82.52140259 11.01873779 82.15411377 C8.76707102 81.01009008 6.50888925 79.87968549 4.25 78.75 C2.04264256 77.63542254 -0.16328329 76.51805225 -2.36901855 75.40026855 C-3.8161123 74.66711008 -5.26378188 73.93508702 -6.71203613 73.20422363 C-13.20593587 69.91963281 -19.61534691 66.49191197 -26 63 C-23.20797575 53.91550319 -19.43356972 45.2491529 -15.75 36.5 C-14.77554422 34.17745786 -13.8020229 31.85452605 -12.82873535 29.53149414 C-12.18482717 27.99522864 -11.54021953 26.45925611 -10.89489746 24.92358398 C-9.24205766 20.98617647 -7.60422345 17.0433514 -5.99023438 13.08984375 C-5.66879456 12.30323364 -5.34735474 11.51662354 -5.01617432 10.70617676 C-4.40273033 9.20212339 -3.79143414 7.69719177 -3.18255615 6.19128418 C-1.10981559 1.10981559 -1.10981559 1.10981559 0 0 Z " fill="#F1F9F0" transform="translate(102,18)"/>
<path d="M0 0 C6.19178757 0.49988433 11.0032684 1.58651607 16.640625 4.2578125 C19.46881373 5.14747452 21.16239073 4.69472503 24 4 C24.33 4.33 24.66 4.66 25 5 C27.35313555 5.07271741 29.70833668 5.08370868 32.0625 5.0625 C33.35285156 5.05347656 34.64320313 5.04445313 35.97265625 5.03515625 C36.97167969 5.02355469 37.97070312 5.01195312 39 5 C37.49426302 12.05538771 35.7091081 19.00512955 33.8125 25.96484375 C33.50932861 27.07936417 33.20615723 28.19388458 32.89379883 29.34217834 C32.25626973 31.68133374 31.61749648 34.02015037 30.97753906 36.35864258 C29.99686474 39.94897848 29.0257413 43.54181756 28.0546875 47.13476562 C27.43287907 49.41161883 26.8105034 51.68831722 26.1875 53.96484375 C25.89786377 55.04185043 25.60822754 56.11885712 25.30981445 57.22850037 C25.03613037 58.22035843 24.76244629 59.21221649 24.48046875 60.23413086 C24.24223389 61.10855331 24.00399902 61.98297577 23.75854492 62.88389587 C23 65 23 65 21 67 C18.35290709 65.85700498 15.70730948 64.71075628 13.0625 63.5625 C12.30775391 63.23701172 11.55300781 62.91152344 10.77539062 62.57617188 C5.11328125 60.11328125 5.11328125 60.11328125 4 59 C4.06511798 56.04897137 4.19256125 53.1316053 4.375 50.1875 C4.41882813 49.36701172 4.46265625 48.54652344 4.5078125 47.70117188 C4.87264591 41.45339971 4.87264591 41.45339971 5.58447266 38.91918945 C6.2150215 36.79537051 6.2150215 36.79537051 5 34 C4.67 35.98 4.34 37.96 4 40 C3.67 40 3.34 40 3 40 C2.93941406 39.14277344 2.87882813 38.28554687 2.81640625 37.40234375 C2.73261719 36.25894531 2.64882812 35.11554688 2.5625 33.9375 C2.48128906 32.81214844 2.40007812 31.68679687 2.31640625 30.52734375 C2.11218868 28.250696 1.84433586 25.97845409 1.5 23.71875 C0.86611078 19.00419893 0.6460854 14.31209214 0.4375 9.5625 C0.39431641 8.64017578 0.35113281 7.71785156 0.30664062 6.76757812 C0.20145069 4.51183837 0.09930893 2.25600501 0 0 Z " fill="#41B430" transform="translate(140,52)"/>
<path d="M0 0 C1.11761719 0.47566406 1.11761719 0.47566406 2.2578125 0.9609375 C7.4520691 2.40318411 12.50701005 2.4663402 17.875 2.625 C19.47988281 2.68300781 19.47988281 2.68300781 21.1171875 2.7421875 C23.74462408 2.83602452 26.37206171 2.92171557 29 3 C29 3.99 29 4.98 29 6 C29.495 6.495 29.495 6.495 30 7 C30.66 6.34 31.32 5.68 32 5 C31.88544319 6.91731918 31.75793742 8.8338675 31.625 10.75 C31.52058594 12.35101563 31.52058594 12.35101563 31.4140625 13.984375 C31.0271777 16.80206432 30.44313834 18.5830366 29 21 C28.505 19.515 28.505 19.515 28 18 C26.36640077 22.92134611 24.91052423 27.62417249 24.5 32.8125 C24.17916606 36.64245517 22.98184123 38.69693129 21 42 C20.45714374 44.98824615 20.19140126 47.97058008 20 51 C15.2944922 51 12.18770767 49.44903681 8.0625 47.4375 C7.31556885 47.07978516 6.5686377 46.72207031 5.79907227 46.35351562 C-0.9144449 43.10870861 -7.4850186 39.62572878 -14 36 C-13.39793234 31.34150151 -12.11877136 27.4347717 -10.3125 23.10546875 C-10.04993408 22.47264481 -9.78736816 21.83982086 -9.5168457 21.18782043 C-8.96506107 19.86135436 -8.41024545 18.53614541 -7.85253906 17.2121582 C-6.99632268 15.17876689 -6.14977038 13.14155589 -5.3046875 11.10351562 C-1.1562281 1.1562281 -1.1562281 1.1562281 0 0 Z " fill="#41B430" transform="translate(96,43)"/>
<path d="M0 0 C2.97 0 5.94 0 9 0 C9.33 0.99 9.66 1.98 10 3 C10.99 2.34 11.98 1.68 13 1 C18.54547053 0.32064036 23.4234643 0.02982418 28.25 3 C28.8275 3.66 29.405 4.32 30 5 C30.86625 4.01 30.86625 4.01 31.75 3 C36.65173933 -0.01645497 41.38449299 0.2077708 47 1 C50.07365786 2.80803404 51.43019732 3.86039464 53 7 C53.08510205 8.9593604 53.10717656 10.92162794 53.09765625 12.8828125 C53.09443359 14.04941406 53.09121094 15.21601563 53.08789062 16.41796875 C53.07532227 18.25294922 53.07532227 18.25294922 53.0625 20.125 C53.05798828 21.35605469 53.05347656 22.58710938 53.04882812 23.85546875 C53.0370133 26.90369392 53.02054028 29.95182314 53 33 C50.03 33 47.06 33 44 33 C43.97494385 32.27820557 43.9498877 31.55641113 43.92407227 30.81274414 C43.80848698 27.562465 43.68559226 24.31250312 43.5625 21.0625 C43.52318359 19.92619141 43.48386719 18.78988281 43.44335938 17.61914062 C43.40146484 16.53955078 43.35957031 15.45996094 43.31640625 14.34765625 C43.26141968 12.84730835 43.26141968 12.84730835 43.20532227 11.31665039 C43.25328159 9.03930812 43.25328159 9.03930812 42 8 C40.50261876 7.9020943 39.00057108 7.87025136 37.5 7.875 C36.6853125 7.87242187 35.870625 7.86984375 35.03125 7.8671875 C33.00469623 7.7754822 33.00469623 7.7754822 32 9 C31.84235595 10.77869726 31.74899323 12.56318476 31.68359375 14.34765625 C31.64169922 15.42724609 31.59980469 16.50683594 31.55664062 17.61914062 C31.51732422 18.75544922 31.47800781 19.89175781 31.4375 21.0625 C31.39431641 22.20267578 31.35113281 23.34285156 31.30664062 24.51757812 C31.20017161 27.34492195 31.09815793 30.17235738 31 33 C28.36 33 25.72 33 23 33 C22.98541748 32.28344238 22.97083496 31.56688477 22.95581055 30.82861328 C22.88151 27.59352017 22.78479139 24.35947981 22.6875 21.125 C22.66494141 19.99707031 22.64238281 18.86914062 22.61914062 17.70703125 C22.5659668 16.09248047 22.5659668 16.09248047 22.51171875 14.4453125 C22.48553467 13.45031738 22.45935059 12.45532227 22.43237305 11.43017578 C22.28968994 10.62821777 22.14700684 9.82625977 22 9 C18.50875983 6.67250655 17.10777749 6.49700684 13 7 C10.63182246 8.26003038 10.63182246 8.26003038 9 11 C8.35550937 14.74163677 8.3029128 18.45951976 8.25 22.25 C8.22035156 23.28125 8.19070312 24.3125 8.16015625 25.375 C8.08955222 27.91674495 8.03680991 30.45757783 8 33 C5.36 33 2.72 33 0 33 C0 22.11 0 11.22 0 0 Z " fill="#F6FBF5" transform="translate(144,133)"/>
<path d="M0 0 C2.64 0 5.28 0 8 0 C8.33 0.66 8.66 1.32 9 2 C9.99 1.34 10.98 0.68 12 0 C15.1796875 -0.37109375 15.1796875 -0.37109375 18.875 -0.4375 C20.08929688 -0.47746094 21.30359375 -0.51742187 22.5546875 -0.55859375 C26 0 26 0 28.92578125 1.6640625 C32.28578272 7.06790667 31.52149256 12.59738286 31.3125 18.8125 C31.28994141 20.07771484 31.26738281 21.34292969 31.24414062 22.64648438 C31.18529078 25.76552619 31.1031137 28.88215902 31 32 C28.36 32 25.72 32 23 32 C22.98541748 31.28344238 22.97083496 30.56688477 22.95581055 29.82861328 C22.88151 26.59352017 22.78479139 23.35947981 22.6875 20.125 C22.66494141 18.99707031 22.64238281 17.86914062 22.61914062 16.70703125 C22.5659668 15.09248047 22.5659668 15.09248047 22.51171875 13.4453125 C22.48553467 12.45031738 22.45935059 11.45532227 22.43237305 10.43017578 C22.28968994 9.62821777 22.14700684 8.82625977 22 8 C18.6774775 5.784985 18.12268409 5.80589124 14.375 6.3125 C13.57835938 6.41175781 12.78171875 6.51101562 11.9609375 6.61328125 C10.00430154 6.81005493 10.00430154 6.81005493 9 8 C8.84235595 9.77869726 8.74899323 11.56318476 8.68359375 13.34765625 C8.64169922 14.42724609 8.59980469 15.50683594 8.55664062 16.61914062 C8.51732422 17.75544922 8.47800781 18.89175781 8.4375 20.0625 C8.39431641 21.20267578 8.35113281 22.34285156 8.30664062 23.51757812 C8.20017161 26.34492195 8.09815793 29.17235738 8 32 C5.36 32 2.72 32 0 32 C0 21.44 0 10.88 0 0 Z " fill="#FBFDFA" transform="translate(108,133)"/>
<path d="M0 0 C2.97 0 5.94 0 9 0 C9 2.64 9 5.28 9 8 C13.29 8 17.58 8 22 8 C22 9.98 22 11.96 22 14 C17.71 14 13.42 14 9 14 C9.33 20.27 9.66 26.54 10 33 C11.65 33 13.3 33 15 33 C15.33 31.02 15.66 29.04 16 27 C18.31 27 20.62 27 23 27 C23.05395478 28.62463842 23.09277195 30.24978541 23.125 31.875 C23.14820312 32.77992188 23.17140625 33.68484375 23.1953125 34.6171875 C23 37 23 37 21 39 C19.15234375 39.25878906 19.15234375 39.25878906 16.9375 39.265625 C15.74253906 39.26949219 15.74253906 39.26949219 14.5234375 39.2734375 C13.69070312 39.26570313 12.85796875 39.25796875 12 39.25 C10.75089844 39.26160156 10.75089844 39.26160156 9.4765625 39.2734375 C8.67992188 39.27085937 7.88328125 39.26828125 7.0625 39.265625 C6.33160156 39.26336914 5.60070312 39.26111328 4.84765625 39.25878906 C3 39 3 39 1 37 C0.77294922 34.66162109 0.77294922 34.66162109 0.8046875 31.7734375 C0.81435547 30.2265625 0.81435547 30.2265625 0.82421875 28.6484375 C0.84097656 27.56820312 0.85773438 26.48796875 0.875 25.375 C0.88402344 24.28703125 0.89304687 23.1990625 0.90234375 22.078125 C0.92596591 19.38519848 0.95890444 16.69270745 1 14 C-0.65 14 -2.3 14 -4 14 C-4 11.69 -4 9.38 -4 7 C-2.68 7 -1.36 7 0 7 C0 4.69 0 2.38 0 0 Z " fill="#F7FBF6" transform="translate(79,126)"/>
<path d="M0 0 C6.42315856 -0.25454003 12.5093129 0.7237387 18.83984375 1.75 C19.96193741 1.92756836 21.08403107 2.10513672 22.24012756 2.28808594 C25.80674255 2.85367737 29.3721121 3.4267293 32.9375 4 C35.36255169 4.38591037 37.78768114 4.77133248 40.21289062 5.15625 C46.14283936 6.09851303 52.07178455 7.04689623 58 8 C58 8.33 58 8.66 58 9 C55.69 9.33 53.38 9.66 51 10 C51 10.33 51 10.66 51 11 C50.04971924 10.98428955 49.09943848 10.9685791 48.12036133 10.95239258 C30.17601223 10.68158453 12.69647838 10.54702861 -5 14 C-4.47658241 10.15425815 -3.76825453 7.05028268 -1.9375 3.625 C-1.57527344 2.93664062 -1.21304688 2.24828125 -0.83984375 1.5390625 C-0.42412109 0.77722656 -0.42412109 0.77722656 0 0 Z " fill="#42B430" transform="translate(104,23)"/>
<path d="M0 0 C5.28 0 10.56 0 16 0 C15.67 1.32 15.34 2.64 15 4 C13.00045254 4.04254356 10.99958364 4.04080783 9 4 C8.67 3.67 8.34 3.34 8 3 C6.65252916 2.76924918 5.29622435 2.58846937 3.9375 2.4375 C2.638125 2.293125 1.33875 2.14875 0 2 C0 1.34 0 0.68 0 0 Z " fill="#48B536" transform="translate(165,49)"/>
<path d="M0 0 C7.425 0.99 7.425 0.99 15 2 C15 2.33 15 2.66 15 3 C6.42 3 -2.16 3 -11 3 C-11 2.67 -11 2.34 -11 2 C-7.37 2 -3.74 2 0 2 C0 1.34 0 0.68 0 0 Z " fill="#58BA49" transform="translate(147,29)"/>
<path d="M0 0 C0.33 0 0.66 0 1 0 C0.855625 1.155 0.71125 2.31 0.5625 3.5 C0.47355469 4.22960937 0.38460937 4.95921875 0.29296875 5.7109375 C0.10534427 7.17691013 -0.09887677 8.64091207 -0.32421875 10.1015625 C-0.95220844 14.32622038 -0.93775588 17.83219607 0 22 C-0.99 21.34 -1.98 20.68 -3 20 C-4.12892859 13.46920883 -2.95705035 5.9141007 0 0 Z " fill="#4BB639" transform="translate(125,78)"/>
<path d="M0 0 C1.17175781 0.03480469 2.34351563 0.06960937 3.55078125 0.10546875 C5.32001953 0.14607422 5.32001953 0.14607422 7.125 0.1875 C8.02863281 0.22230469 8.93226563 0.25710937 9.86328125 0.29296875 C9.86328125 0.62296875 9.86328125 0.95296875 9.86328125 1.29296875 C8.21328125 1.62296875 6.56328125 1.95296875 4.86328125 2.29296875 C4.86328125 2.62296875 4.86328125 2.95296875 4.86328125 3.29296875 C1.23328125 3.29296875 -2.39671875 3.29296875 -6.13671875 3.29296875 C-3.13671875 0.29296875 -3.13671875 0.29296875 0 0 Z " fill="#B1DEAA" transform="translate(139.13671875,33.70703125)"/>
<path d="M0 0 C4.16138263 -0.08159574 7.9472484 0.01751476 12 1 C12 1.66 12 2.32 12 3 C8.04 3 4.08 3 0 3 C0 2.01 0 1.02 0 0 Z " fill="#3AB127" transform="translate(135,28)"/>
<path d="M0 0 C0.33 0.66 0.66 1.32 1 2 C0.01 3.485 0.01 3.485 -1 5 C-3.625 5.1875 -3.625 5.1875 -6 5 C-6.33 4.01 -6.66 3.02 -7 2 C-4.69 1.34 -2.38 0.68 0 0 Z " fill="#3FB32C" transform="translate(184,35)"/>
<path d="M0 0 C0.33 0 0.66 0 1 0 C1.66 5.28 2.32 10.56 3 16 C2.01 16 1.02 16 0 16 C0 10.72 0 5.44 0 0 Z " fill="#E1F3DE" transform="translate(144,76)"/>
<path d="M0 0 C1.53202706 0.25195908 3.05257128 0.57596777 4.5625 0.9375 C5.38878906 1.13214844 6.21507812 1.32679687 7.06640625 1.52734375 C8.02353516 1.76130859 8.02353516 1.76130859 9 2 C7 4 7 4 3.5625 4.0625 C2.386875 4.041875 1.21125 4.02125 0 4 C-0.99 4.33 -1.98 4.66 -3 5 C-1.125 1.125 -1.125 1.125 0 0 Z " fill="#86CF7C" transform="translate(189,41)"/>
<path d="M0 0 C0.99 0.33 1.98 0.66 3 1 C3.33 2.65 3.66 4.3 4 6 C1.53199953 4.84826645 -0.04783565 3.95216435 -2 2 C-1.34 2 -0.68 2 0 2 C0 1.34 0 0.68 0 0 Z " fill="#67C159" transform="translate(126,106)"/>
</svg>
